<svg width="960" height="540" viewBox="0 0 960 540" fill="none" xmlns="http://www.w3.org/2000/svg" role="img" aria-labelledby="title desc">
  <title id="title">The Data Leak Hydra 7 Heads</title>
  <desc id="desc">Corrupted form: redacted files peel away as toxic data streams pour out.</desc>
  <defs>
    <linearGradient id="bg" x1="0" y1="0" x2="960" y2="540" gradientUnits="userSpaceOnUse">
      <stop offset="0" stop-color="#050b14"/>
      <stop offset=".48" stop-color="#12051c"/>
      <stop offset="1" stop-color="#061b22"/>
    </linearGradient>
    <radialGradient id="core" cx="50%" cy="46%" r="50%">
      <stop offset="0" stop-color="#39ff88" stop-opacity=".32"/>
      <stop offset=".45" stop-color="#ff2b4f" stop-opacity=".16"/>
      <stop offset="1" stop-color="#020713" stop-opacity="0"/>
    </radialGradient>
    <pattern id="scan" width="9" height="9" patternUnits="userSpaceOnUse">
      <path d="M0 0H9" stroke="#39ff88" stroke-opacity=".08"/>
    </pattern>
    <filter id="phaseImage">
      <feColorMatrix type="saturate" values="1.6600000000000001"/>
      <feComponentTransfer>
        <feFuncR type="linear" slope="1.18"/>
        <feFuncG type="linear" slope="1.06"/>
        <feFuncB type="linear" slope="1.12"/>
      </feComponentTransfer>
    </filter>
    <filter id="glow" x="-30%" y="-30%" width="160%" height="160%">
      <feGaussianBlur stdDeviation="8" result="blur"/>
      <feMerge><feMergeNode in="blur"/><feMergeNode in="SourceGraphic"/></feMerge>
    </filter>
    <filter id="heavyGlow" x="-50%" y="-50%" width="200%" height="200%">
      <feGaussianBlur stdDeviation="16" result="blur"/>
      <feMerge><feMergeNode in="blur"/><feMergeNode in="SourceGraphic"/></feMerge>
    </filter>
    <style>
      @keyframes pulseGlow { 0%,100% { opacity: .46; } 50% { opacity: 1; } }
      @keyframes energyMove { to { stroke-dashoffset: -260; transform: translateX(34px); } }
      @keyframes scanMove { 0% { transform: translateY(-540px); } 100% { transform: translateY(540px); } }
      @keyframes reactorFlicker { 0%,100% { opacity: .34; transform: scale(.94); } 40% { opacity: .92; transform: scale(1.08); } 70% { opacity: .58; transform: scale(1.02); } }
      @keyframes corruptionPulse { 0%,100% { opacity: .22; } 50% { opacity: .78; } }
      @keyframes eyeGlowPulse { 0%,100% { opacity: .56; } 50% { opacity: 1; } }
      @keyframes threatPulse { 0%,100% { opacity: .52; } 50% { opacity: 1; } }
      @keyframes spin { to { transform: rotate(360deg); } }
      @keyframes sweep { 0% { transform: translateX(-960px); } 100% { transform: translateX(960px); } }
      .pulsing-glow { animation: pulseGlow 1.7399999999999998s ease-in-out infinite; }
      .energy-movement { animation: energyMove 3.9600000000000004s linear infinite; }
      .scanline-movement { animation: scanMove 4.75s linear infinite; }
      .reactor-flicker { transform-box: fill-box; transform-origin: center; animation: reactorFlicker 1.26s steps(3,end) infinite; }
      .corruption-pulse { animation: corruptionPulse 2.1399999999999997s ease-in-out infinite; }
      .eye-glow-pulse { animation: eyeGlowPulse 1.44s ease-in-out infinite; }
      .threat-indicator-pulse { animation: threatPulse 1.3599999999999999s ease-in-out infinite; }
      .spin { transform-origin: 480px 270px; animation: spin 8s linear infinite; }
      .sweep { animation: sweep 4.8s linear infinite; }
    </style>
  </defs>
  <rect width="960" height="540" fill="url(#bg)"/>
  <image href="../master_boss_art/data_leak_hydra_master.png" x="-33" y="-19" width="1027" height="578" preserveAspectRatio="xMidYMid slice" filter="url(#phaseImage)"/>
  <rect width="960" height="540" fill="url(#core)" opacity="0.5"/>
  <rect class="corruption-pulse" width="960" height="540" fill="#ff2b4f" fill-opacity=".12"/>
  <rect width="960" height="540" fill="url(#scan)"/>
  <rect class="scanline-movement" x="0" y="-540" width="960" height="86" fill="#39ff88" fill-opacity=".10"/>
  <rect class="sweep" x="0" y="0" width="258" height="540" fill="#39ff88" fill-opacity=".045"/>
  <path class="spin" d="M84 270C204 32 756 32 876 270C756 508 204 508 84 270Z" stroke="#ff2b4f" stroke-opacity=".16" stroke-width="6" stroke-dasharray="26 18" fill="none"/>
  <g filter="url(#heavyGlow)">
    <path class="energy-movement" d="M-40 80C160 10 330 164 520 80C710 -4 850 148 1000 52" stroke="#23f7dd" stroke-opacity=".42" stroke-width="3" stroke-linecap="round" stroke-dasharray="30 24" fill="none"/>
    <path class="energy-movement" d="M-40 175C160 105 330 259 520 175C710 91 850 243 1000 147" stroke="#23f7dd" stroke-opacity=".42" stroke-width="4" stroke-linecap="round" stroke-dasharray="30 24" fill="none"/>
    <path class="energy-movement" d="M-40 270C160 200 330 354 520 270C710 186 850 338 1000 242" stroke="#23f7dd" stroke-opacity=".42" stroke-width="5" stroke-linecap="round" stroke-dasharray="30 24" fill="none"/>
    <path class="energy-movement" d="M-40 365C160 295 330 449 520 365C710 281 850 433 1000 337" stroke="#23f7dd" stroke-opacity=".42" stroke-width="6" stroke-linecap="round" stroke-dasharray="30 24" fill="none"/>
    <path class="energy-movement" d="M-40 460C160 390 330 544 520 460C710 376 850 528 1000 432" stroke="#23f7dd" stroke-opacity=".42" stroke-width="3" stroke-linecap="round" stroke-dasharray="30 24" fill="none"/>
    <path class="corruption-pulse" d="M80 70L104 104L88 142L126 188" stroke="#ff2b4f" stroke-opacity=".42" stroke-width="2" fill="none"/>
    <path class="corruption-pulse" d="M217 153L241 187L225 225L263 271" stroke="#ff2b4f" stroke-opacity=".42" stroke-width="3" fill="none"/>
    <path class="corruption-pulse" d="M354 236L378 270L362 308L400 354" stroke="#ff2b4f" stroke-opacity=".42" stroke-width="4" fill="none"/>
    <path class="corruption-pulse" d="M491 319L515 353L499 391L537 437" stroke="#ff2b4f" stroke-opacity=".42" stroke-width="2" fill="none"/>
    <path class="corruption-pulse" d="M628 402L652 436L636 474L674 520" stroke="#ff2b4f" stroke-opacity=".42" stroke-width="3" fill="none"/>
    <path class="corruption-pulse" d="M765 105L789 139L773 177L811 223" stroke="#ff2b4f" stroke-opacity=".42" stroke-width="4" fill="none"/>
    <path class="corruption-pulse" d="M112 188L136 222L120 260L158 306" stroke="#ff2b4f" stroke-opacity=".42" stroke-width="2" fill="none"/>
    <path class="corruption-pulse" d="M249 271L273 305L257 343L295 389" stroke="#ff2b4f" stroke-opacity=".42" stroke-width="3" fill="none"/>
    <path class="corruption-pulse" d="M386 354L410 388L394 426L432 472" stroke="#ff2b4f" stroke-opacity=".42" stroke-width="4" fill="none"/>
    <path class="corruption-pulse" d="M523 437L547 471L531 509L569 555" stroke="#ff2b4f" stroke-opacity=".42" stroke-width="2" fill="none"/>
    <path class="corruption-pulse" d="M660 140L684 174L668 212L706 258" stroke="#ff2b4f" stroke-opacity=".42" stroke-width="3" fill="none"/>
    <path class="corruption-pulse" d="M797 223L821 257L805 295L843 341" stroke="#ff2b4f" stroke-opacity=".42" stroke-width="4" fill="none"/>
    <circle class="pulsing-glow" cx="482" cy="292" r="176" fill="#23f7dd" fill-opacity=".12" filter="url(#glow)"/>
    <circle class="eye-glow-pulse" cx="438" cy="226" r="10" fill="#23f7dd" fill-opacity=".86" filter="url(#glow)"/>
    <circle class="eye-glow-pulse" cx="522" cy="226" r="10" fill="#23f7dd" fill-opacity=".86" filter="url(#glow)"/>
    <circle class="reactor-flicker" cx="482" cy="292" r="76" fill="#39ff88" fill-opacity="0.27" filter="url(#glow)"/>
    <circle class="corruption-pulse" cx="482" cy="292" r="142" stroke="#ff2b4f" stroke-opacity="0.49" stroke-width="9" fill="none"/>
    <path class="threat-indicator-pulse" d="M36 42H214L250 78H36Z" fill="#020713" fill-opacity=".78" stroke="#39ff88" stroke-width="2"/>
    <circle class="eye-glow-pulse" cx="144" cy="132" r="13" fill="#23f7dd" filter="url(#glow)"/>
      <circle class="eye-glow-pulse" cx="178" cy="136" r="13" fill="#23f7dd" filter="url(#glow)"/>
    <circle class="eye-glow-pulse" cx="256" cy="174" r="13" fill="#23f7dd" filter="url(#glow)"/>
      <circle class="eye-glow-pulse" cx="290" cy="178" r="13" fill="#23f7dd" filter="url(#glow)"/>
    <circle class="eye-glow-pulse" cx="368" cy="216" r="13" fill="#23f7dd" filter="url(#glow)"/>
      <circle class="eye-glow-pulse" cx="402" cy="220" r="13" fill="#23f7dd" filter="url(#glow)"/>
    <circle class="eye-glow-pulse" cx="480" cy="132" r="13" fill="#23f7dd" filter="url(#glow)"/>
      <circle class="eye-glow-pulse" cx="514" cy="136" r="13" fill="#23f7dd" filter="url(#glow)"/>
    <circle class="eye-glow-pulse" cx="592" cy="174" r="13" fill="#23f7dd" filter="url(#glow)"/>
      <circle class="eye-glow-pulse" cx="626" cy="178" r="13" fill="#23f7dd" filter="url(#glow)"/>
    <circle class="eye-glow-pulse" cx="704" cy="216" r="13" fill="#23f7dd" filter="url(#glow)"/>
      <circle class="eye-glow-pulse" cx="738" cy="220" r="13" fill="#23f7dd" filter="url(#glow)"/>
    <circle class="eye-glow-pulse" cx="816" cy="132" r="13" fill="#23f7dd" filter="url(#glow)"/>
      <circle class="eye-glow-pulse" cx="850" cy="136" r="13" fill="#23f7dd" filter="url(#glow)"/>
    <path class="corruption-pulse" d="M104 38L144 116L112 190M122 234L158 318" stroke="#ff2b4f" stroke-opacity=".7" stroke-width="7" stroke-dasharray="24 24" fill="none"/>
    <path class="corruption-pulse" d="M292 38L332 116L300 190M310 234L346 318" stroke="#ff2b4f" stroke-opacity=".7" stroke-width="7" stroke-dasharray="24 24" fill="none"/>
    <path class="corruption-pulse" d="M480 38L520 116L488 190M498 234L534 318" stroke="#ff2b4f" stroke-opacity=".7" stroke-width="7" stroke-dasharray="24 24" fill="none"/>
    <path class="corruption-pulse" d="M668 38L708 116L676 190M686 234L722 318" stroke="#ff2b4f" stroke-opacity=".7" stroke-width="7" stroke-dasharray="24 24" fill="none"/>
    <path class="corruption-pulse" d="M856 38L896 116L864 190M874 234L910 318" stroke="#ff2b4f" stroke-opacity=".7" stroke-width="7" stroke-dasharray="24 24" fill="none"/>
    <path class="energy-movement" d="M-40 80C160 10 330 164 520 80C710 -4 850 148 1000 52" stroke="#39ff88" stroke-opacity=".64" stroke-width="3" stroke-linecap="round" stroke-dasharray="30 24" fill="none"/>
    <path class="energy-movement" d="M-40 143.33333333333334C160 73.33333333333334 330 227.33333333333334 520 143.33333333333334C710 59.33333333333334 850 211.33333333333334 1000 115.33333333333334" stroke="#39ff88" stroke-opacity=".64" stroke-width="4" stroke-linecap="round" stroke-dasharray="30 24" fill="none"/>
    <path class="energy-movement" d="M-40 206.66666666666669C160 136.66666666666669 330 290.6666666666667 520 206.66666666666669C710 122.66666666666669 850 274.6666666666667 1000 178.66666666666669" stroke="#39ff88" stroke-opacity=".64" stroke-width="5" stroke-linecap="round" stroke-dasharray="30 24" fill="none"/>
    <path class="energy-movement" d="M-40 270C160 200 330 354 520 270C710 186 850 338 1000 242" stroke="#39ff88" stroke-opacity=".64" stroke-width="6" stroke-linecap="round" stroke-dasharray="30 24" fill="none"/>
    <path class="energy-movement" d="M-40 333.33333333333337C160 263.33333333333337 330 417.33333333333337 520 333.33333333333337C710 249.33333333333337 850 401.33333333333337 1000 305.33333333333337" stroke="#39ff88" stroke-opacity=".64" stroke-width="3" stroke-linecap="round" stroke-dasharray="30 24" fill="none"/>
    <path class="energy-movement" d="M-40 396.6666666666667C160 326.6666666666667 330 480.6666666666667 520 396.6666666666667C710 312.6666666666667 850 464.6666666666667 1000 368.6666666666667" stroke="#39ff88" stroke-opacity=".64" stroke-width="4" stroke-linecap="round" stroke-dasharray="30 24" fill="none"/>
    <path class="energy-movement" d="M-40 460C160 390 330 544 520 460C710 376 850 528 1000 432" stroke="#39ff88" stroke-opacity=".64" stroke-width="5" stroke-linecap="round" stroke-dasharray="30 24" fill="none"/>
    <path class="threat-indicator-pulse" d="M92 468C248 404 414 512 576 430C708 362 816 410 934 352" stroke="#23f7dd" stroke-width="11" stroke-opacity=".68" stroke-dasharray="18 14" fill="none"/>
  </g>
  <g filter="url(#glow)">
    <text x="58" y="66" fill="#23f7dd" font-family="ui-monospace, SFMono-Regular, Menlo, Monaco, Consolas, monospace" font-size="20" font-weight="900">PHASE 3</text>
    <text x="58" y="92" fill="#f7fbff" font-family="ui-monospace, SFMono-Regular, Menlo, Monaco, Consolas, monospace" font-size="16" font-weight="900">7 Heads</text>
    <circle class="threat-indicator-pulse" cx="902" cy="58" r="25" fill="#39ff88" filter="url(#glow)"/>
  </g>
</svg>
