<svg width="960" height="540" viewBox="0 0 960 540" fill="none" xmlns="http://www.w3.org/2000/svg" role="img" aria-labelledby="title desc">
  <title id="title">The Data Leak Hydra Normal Form</title>
  <desc id="desc">Normal form: three encrypted heads watch the raid perimeter.</desc>
  <defs>
    <linearGradient id="bg" x1="0" y1="0" x2="960" y2="540" gradientUnits="userSpaceOnUse">
      <stop offset="0" stop-color="#050b14"/>
      <stop offset=".48" stop-color="#12051c"/>
      <stop offset="1" stop-color="#061b22"/>
    </linearGradient>
    <radialGradient id="core" cx="50%" cy="46%" r="50%">
      <stop offset="0" stop-color="#39ff88" stop-opacity=".32"/>
      <stop offset=".45" stop-color="#ff2b4f" stop-opacity=".16"/>
      <stop offset="1" stop-color="#020713" stop-opacity="0"/>
    </radialGradient>
    <pattern id="scan" width="9" height="9" patternUnits="userSpaceOnUse">
      <path d="M0 0H9" stroke="#39ff88" stroke-opacity=".08"/>
    </pattern>
    <filter id="glow" x="-30%" y="-30%" width="160%" height="160%">
      <feGaussianBlur stdDeviation="8" result="blur"/>
      <feMerge><feMergeNode in="blur"/><feMergeNode in="SourceGraphic"/></feMerge>
    </filter>
    <filter id="heavyGlow" x="-50%" y="-50%" width="200%" height="200%">
      <feGaussianBlur stdDeviation="16" result="blur"/>
      <feMerge><feMergeNode in="blur"/><feMergeNode in="SourceGraphic"/></feMerge>
    </filter>
    <style>
      @keyframes pulse { 0%,100% { opacity: .55; } 50% { opacity: 1; } }
      @keyframes spin { to { transform: rotate(360deg); } }
      @keyframes shake { 0%,100% { transform: translate(0,0); } 20% { transform: translate(3px,-2px); } 40% { transform: translate(-3px,2px); } 60% { transform: translate(2px,3px); } 80% { transform: translate(-2px,-3px); } }
      @keyframes drift { 0%,100% { transform: translateX(0); } 50% { transform: translateX(16px); } }
      @keyframes sweep { 0% { transform: translateX(-960px); } 100% { transform: translateX(960px); } }
      @keyframes flow { to { stroke-dashoffset: -220; } }
      .pulse { animation: pulse 2.15s ease-in-out infinite; }
      .spin { transform-origin: 480px 270px; animation: spin 12s linear infinite; }
      .shake { animation: shake 1.9200000000000002s steps(2,end) infinite; }
      .drift { animation: drift 4.95s ease-in-out infinite; }
      .sweep { animation: sweep 5.6s linear infinite; }
      .flow { animation: flow 4.7s linear infinite; }
    </style>
  </defs>
  <rect width="960" height="540" fill="url(#bg)"/>
  <rect width="960" height="540" fill="url(#core)"/>
  <rect width="960" height="540" fill="url(#scan)"/>
  <rect class="sweep" x="0" y="0" width="156" height="540" fill="#39ff88" fill-opacity=".045"/>
  <path d="M0 108H960M0 432H960M110 0V540M850 0V540" stroke="#39ff88" stroke-opacity=".08"/>
  <path d="M22 24H202M758 24H938M22 516H202M758 516H938" stroke="#ff2b4f" stroke-opacity=".72" stroke-width="4"/>
  <path class="spin" d="M84 270C204 32 756 32 876 270C756 508 204 508 84 270Z" stroke="#ff2b4f" stroke-opacity=".18" stroke-width="4" stroke-dasharray="26 18" fill="none"/>
  <g filter="url(#heavyGlow)">
    <g>
    <path d="M176 386C258 282 390 250 480 314C586 244 736 286 822 398C676 496 330 500 176 386Z" fill="#050b10" stroke="#39ff88" stroke-width="10"/>
    <path d="M264 426C386 342 574 342 704 430C590 506 388 506 264 426Z" fill="#020607" stroke="#ff2b4f" stroke-width="7"/>
    <path d="M480 370C162 348 62 238 120 152" stroke="#39ff88" stroke-width="24" stroke-linecap="round" fill="none"/>
    <path class="pulse" d="M54 172C82 108 162 100 202 160C164 224 86 228 54 172Z" fill="#061012" stroke="#39ff88" stroke-width="6"/>
    <path d="M86 166L112 152L104 182M150 164L176 150L168 182" stroke="#23f7dd" stroke-width="6" fill="none"/>
    <path d="M96 197C128 213 166 205 192 179" stroke="#ff2b4f" stroke-width="5" fill="none"/>
    <path class="flow" d="M136 230C130 282 164 308 142 368" stroke="#23f7dd" stroke-opacity=".52" stroke-width="5" stroke-dasharray="14 12" fill="none"/>
    <path d="M480 370C522 348 422 238 480 190" stroke="#ff2b4f" stroke-width="24" stroke-linecap="round" fill="none"/>
    <path class="pulse" d="M414 210C442 146 522 138 562 198C524 262 446 266 414 210Z" fill="#061012" stroke="#ff2b4f" stroke-width="6"/>
    <path d="M446 204L472 190L464 220M510 202L536 188L528 220" stroke="#23f7dd" stroke-width="6" fill="none"/>
    <path d="M456 235C488 251 526 243 552 217" stroke="#ff2b4f" stroke-width="5" fill="none"/>
    <path class="flow" d="M496 268C490 320 524 346 502 406" stroke="#23f7dd" stroke-opacity=".52" stroke-width="5" stroke-dasharray="14 12" fill="none"/>
    <path d="M480 370C882 348 782 238 840 228" stroke="#39ff88" stroke-width="24" stroke-linecap="round" fill="none"/>
    <path class="pulse" d="M774 248C802 184 882 176 922 236C884 300 806 304 774 248Z" fill="#061012" stroke="#39ff88" stroke-width="6"/>
    <path d="M806 242L832 228L824 258M870 240L896 226L888 258" stroke="#23f7dd" stroke-width="6" fill="none"/>
    <path d="M816 273C848 289 886 281 912 255" stroke="#ff2b4f" stroke-width="5" fill="none"/>
    <path class="flow" d="M856 306C850 358 884 384 862 444" stroke="#23f7dd" stroke-opacity=".52" stroke-width="5" stroke-dasharray="14 12" fill="none"/>
    <path class="flow" d="M112 462C292 382 446 510 606 426C704 374 806 404 914 458" stroke="#ff2b4f" stroke-opacity=".92" stroke-width="8" stroke-dasharray="20 12" fill="none"/>
    
    <path class="flow" d="M72 122C210 58 360 164 490 112C650 48 776 80 906 166M54 414C208 334 360 450 518 382C662 320 772 344 916 270" stroke="#ff2b4f" stroke-opacity=".42" stroke-width="4" stroke-linecap="round" stroke-dasharray="26 18" fill="none"/>
    <path class="shake" d="M190 72L246 154L198 230L276 304L218 426L288 510M742 58L694 146L760 238L690 314L744 430L686 512" stroke="#23f7dd" stroke-opacity=".28" stroke-width="3" fill="none"/>
  </g>
  </g>
  <g filter="url(#glow)">
    <path d="M36 42H174L208 76H36Z" fill="#020713" fill-opacity=".82" stroke="#39ff88" stroke-width="2"/>
    <text x="58" y="67" fill="#23f7dd" font-family="ui-monospace, SFMono-Regular, Menlo, Monaco, Consolas, monospace" font-size="22" font-weight="900">PHASE 1</text>
  </g>
</svg>
