<svg width="960" height="540" viewBox="0 0 960 540" fill="none" xmlns="http://www.w3.org/2000/svg" role="img" aria-labelledby="title desc">
  <title id="title">The Data Leak Hydra Mutated Form</title>
  <desc id="desc">Mutated form: leaked keys grow into new heads and exposed ports split open.</desc>
  <defs>
    <linearGradient id="bg" x1="0" y1="0" x2="960" y2="540" gradientUnits="userSpaceOnUse">
      <stop offset="0" stop-color="#050b14"/>
      <stop offset=".48" stop-color="#12051c"/>
      <stop offset="1" stop-color="#061b22"/>
    </linearGradient>
    <radialGradient id="core" cx="50%" cy="46%" r="50%">
      <stop offset="0" stop-color="#39ff88" stop-opacity=".32"/>
      <stop offset=".45" stop-color="#ff2b4f" stop-opacity=".16"/>
      <stop offset="1" stop-color="#020713" stop-opacity="0"/>
    </radialGradient>
    <pattern id="scan" width="9" height="9" patternUnits="userSpaceOnUse">
      <path d="M0 0H9" stroke="#39ff88" stroke-opacity=".08"/>
    </pattern>
    <filter id="glow" x="-30%" y="-30%" width="160%" height="160%">
      <feGaussianBlur stdDeviation="8" result="blur"/>
      <feMerge><feMergeNode in="blur"/><feMergeNode in="SourceGraphic"/></feMerge>
    </filter>
    <filter id="heavyGlow" x="-50%" y="-50%" width="200%" height="200%">
      <feGaussianBlur stdDeviation="16" result="blur"/>
      <feMerge><feMergeNode in="blur"/><feMergeNode in="SourceGraphic"/></feMerge>
    </filter>
    <style>
      @keyframes pulse { 0%,100% { opacity: .55; } 50% { opacity: 1; } }
      @keyframes spin { to { transform: rotate(360deg); } }
      @keyframes shake { 0%,100% { transform: translate(0,0); } 20% { transform: translate(3px,-2px); } 40% { transform: translate(-3px,2px); } 60% { transform: translate(2px,3px); } 80% { transform: translate(-2px,-3px); } }
      @keyframes drift { 0%,100% { transform: translateX(0); } 50% { transform: translateX(16px); } }
      @keyframes sweep { 0% { transform: translateX(-960px); } 100% { transform: translateX(960px); } }
      @keyframes flow { to { stroke-dashoffset: -220; } }
      .pulse { animation: pulse 1.9s ease-in-out infinite; }
      .spin { transform-origin: 480px 270px; animation: spin 10s linear infinite; }
      .shake { animation: shake 1.6400000000000001s steps(2,end) infinite; }
      .drift { animation: drift 4.5s ease-in-out infinite; }
      .sweep { animation: sweep 5.2s linear infinite; }
      .flow { animation: flow 4.2s linear infinite; }
    </style>
  </defs>
  <rect width="960" height="540" fill="url(#bg)"/>
  <rect width="960" height="540" fill="url(#core)"/>
  <rect width="960" height="540" fill="url(#scan)"/>
  <rect class="sweep" x="0" y="0" width="192" height="540" fill="#39ff88" fill-opacity=".045"/>
  <path d="M0 108H960M0 432H960M110 0V540M850 0V540" stroke="#39ff88" stroke-opacity=".08"/>
  <path d="M22 24H202M758 24H938M22 516H202M758 516H938" stroke="#ff2b4f" stroke-opacity=".72" stroke-width="4"/>
  <path class="spin" d="M84 270C204 32 756 32 876 270C756 508 204 508 84 270Z" stroke="#ff2b4f" stroke-opacity=".18" stroke-width="5" stroke-dasharray="26 18" fill="none"/>
  <g filter="url(#heavyGlow)">
    <g>
    <path d="M176 386C258 282 390 250 480 314C586 244 736 286 822 398C676 496 330 500 176 386Z" fill="#050b10" stroke="#39ff88" stroke-width="11"/>
    <path d="M264 426C386 342 574 342 704 430C590 506 388 506 264 426Z" fill="#020607" stroke="#ff2b4f" stroke-width="7"/>
    <path d="M480 370C162 348 62 238 120 140" stroke="#39ff88" stroke-width="26" stroke-linecap="round" fill="none"/>
    <path class="pulse" d="M54 160C82 96 162 88 202 148C164 212 86 216 54 160Z" fill="#061012" stroke="#39ff88" stroke-width="6"/>
    <path d="M86 154L112 140L104 170M150 152L176 138L168 170" stroke="#23f7dd" stroke-width="6" fill="none"/>
    <path d="M96 188C128 204 166 196 192 170" stroke="#ff2b4f" stroke-width="5" fill="none"/>
    <path class="flow" d="M136 218C130 270 164 296 142 356" stroke="#23f7dd" stroke-opacity=".52" stroke-width="5" stroke-dasharray="14 12" fill="none"/>
    <path d="M480 370C342 348 242 238 300 178" stroke="#ff2b4f" stroke-width="26" stroke-linecap="round" fill="none"/>
    <path class="pulse" d="M234 198C262 134 342 126 382 186C344 250 266 254 234 198Z" fill="#061012" stroke="#ff2b4f" stroke-width="6"/>
    <path d="M266 192L292 178L284 208M330 190L356 176L348 208" stroke="#23f7dd" stroke-width="6" fill="none"/>
    <path d="M276 226C308 242 346 234 372 208" stroke="#ff2b4f" stroke-width="5" fill="none"/>
    <path class="flow" d="M316 256C310 308 344 334 322 394" stroke="#23f7dd" stroke-opacity=".52" stroke-width="5" stroke-dasharray="14 12" fill="none"/>
    <path d="M480 370C522 348 422 238 480 216" stroke="#39ff88" stroke-width="26" stroke-linecap="round" fill="none"/>
    <path class="pulse" d="M414 236C442 172 522 164 562 224C524 288 446 292 414 236Z" fill="#061012" stroke="#39ff88" stroke-width="6"/>
    <path d="M446 230L472 216L464 246M510 228L536 214L528 246" stroke="#23f7dd" stroke-width="6" fill="none"/>
    <path d="M456 264C488 280 526 272 552 246" stroke="#ff2b4f" stroke-width="5" fill="none"/>
    <path class="flow" d="M496 294C490 346 524 372 502 432" stroke="#23f7dd" stroke-opacity=".52" stroke-width="5" stroke-dasharray="14 12" fill="none"/>
    <path d="M480 370C702 348 602 238 660 140" stroke="#ff2b4f" stroke-width="26" stroke-linecap="round" fill="none"/>
    <path class="pulse" d="M594 160C622 96 702 88 742 148C704 212 626 216 594 160Z" fill="#061012" stroke="#ff2b4f" stroke-width="6"/>
    <path d="M626 154L652 140L644 170M690 152L716 138L708 170" stroke="#23f7dd" stroke-width="6" fill="none"/>
    <path d="M636 188C668 204 706 196 732 170" stroke="#ff2b4f" stroke-width="5" fill="none"/>
    <path class="flow" d="M676 218C670 270 704 296 682 356" stroke="#23f7dd" stroke-opacity=".52" stroke-width="5" stroke-dasharray="14 12" fill="none"/>
    <path d="M480 370C882 348 782 238 840 178" stroke="#39ff88" stroke-width="26" stroke-linecap="round" fill="none"/>
    <path class="pulse" d="M774 198C802 134 882 126 922 186C884 250 806 254 774 198Z" fill="#061012" stroke="#39ff88" stroke-width="6"/>
    <path d="M806 192L832 178L824 208M870 190L896 176L888 208" stroke="#23f7dd" stroke-width="6" fill="none"/>
    <path d="M816 226C848 242 886 234 912 208" stroke="#ff2b4f" stroke-width="5" fill="none"/>
    <path class="flow" d="M856 256C850 308 884 334 862 394" stroke="#23f7dd" stroke-opacity=".52" stroke-width="5" stroke-dasharray="14 12" fill="none"/>
    <path class="flow" d="M112 462C292 382 446 510 606 426C704 374 806 404 914 458" stroke="#ff2b4f" stroke-opacity=".92" stroke-width="9" stroke-dasharray="28 12" fill="none"/>
    
    <path class="flow" d="M72 122C210 58 360 164 490 112C650 48 776 80 906 166M54 414C208 334 360 450 518 382C662 320 772 344 916 270" stroke="#ff2b4f" stroke-opacity=".42" stroke-width="5" stroke-linecap="round" stroke-dasharray="26 18" fill="none"/>
    <path class="shake" d="M190 72L246 154L198 230L276 304L218 426L288 510M742 58L694 146L760 238L690 314L744 430L686 512" stroke="#23f7dd" stroke-opacity=".28" stroke-width="4" fill="none"/>
  </g>
  </g>
  <g filter="url(#glow)">
    <path d="M36 42H174L208 76H36Z" fill="#020713" fill-opacity=".82" stroke="#39ff88" stroke-width="2"/>
    <text x="58" y="67" fill="#23f7dd" font-family="ui-monospace, SFMono-Regular, Menlo, Monaco, Consolas, monospace" font-size="22" font-weight="900">PHASE 2</text>
  </g>
</svg>
