<svg width="960" height="540" viewBox="0 0 960 540" fill="none" xmlns="http://www.w3.org/2000/svg" role="img" aria-labelledby="title desc">
  <title id="title">The Data Leak Hydra Corrupted Form</title>
  <desc id="desc">Corrupted form: redacted files peel away as toxic data streams pour out.</desc>
  <defs>
    <linearGradient id="bg" x1="0" y1="0" x2="960" y2="540" gradientUnits="userSpaceOnUse">
      <stop offset="0" stop-color="#050b14"/>
      <stop offset=".48" stop-color="#12051c"/>
      <stop offset="1" stop-color="#061b22"/>
    </linearGradient>
    <radialGradient id="core" cx="50%" cy="46%" r="50%">
      <stop offset="0" stop-color="#39ff88" stop-opacity=".32"/>
      <stop offset=".45" stop-color="#ff2b4f" stop-opacity=".16"/>
      <stop offset="1" stop-color="#020713" stop-opacity="0"/>
    </radialGradient>
    <pattern id="scan" width="9" height="9" patternUnits="userSpaceOnUse">
      <path d="M0 0H9" stroke="#39ff88" stroke-opacity=".08"/>
    </pattern>
    <filter id="glow" x="-30%" y="-30%" width="160%" height="160%">
      <feGaussianBlur stdDeviation="8" result="blur"/>
      <feMerge><feMergeNode in="blur"/><feMergeNode in="SourceGraphic"/></feMerge>
    </filter>
    <filter id="heavyGlow" x="-50%" y="-50%" width="200%" height="200%">
      <feGaussianBlur stdDeviation="16" result="blur"/>
      <feMerge><feMergeNode in="blur"/><feMergeNode in="SourceGraphic"/></feMerge>
    </filter>
    <style>
      @keyframes pulse { 0%,100% { opacity: .55; } 50% { opacity: 1; } }
      @keyframes spin { to { transform: rotate(360deg); } }
      @keyframes shake { 0%,100% { transform: translate(0,0); } 20% { transform: translate(3px,-2px); } 40% { transform: translate(-3px,2px); } 60% { transform: translate(2px,3px); } 80% { transform: translate(-2px,-3px); } }
      @keyframes drift { 0%,100% { transform: translateX(0); } 50% { transform: translateX(16px); } }
      @keyframes sweep { 0% { transform: translateX(-960px); } 100% { transform: translateX(960px); } }
      @keyframes flow { to { stroke-dashoffset: -220; } }
      .pulse { animation: pulse 1.65s ease-in-out infinite; }
      .spin { transform-origin: 480px 270px; animation: spin 8s linear infinite; }
      .shake { animation: shake 1.36s steps(2,end) infinite; }
      .drift { animation: drift 4.050000000000001s ease-in-out infinite; }
      .sweep { animation: sweep 4.8s linear infinite; }
      .flow { animation: flow 3.7s linear infinite; }
    </style>
  </defs>
  <rect width="960" height="540" fill="url(#bg)"/>
  <rect width="960" height="540" fill="url(#core)"/>
  <rect width="960" height="540" fill="url(#scan)"/>
  <rect class="sweep" x="0" y="0" width="228" height="540" fill="#39ff88" fill-opacity=".045"/>
  <path d="M0 108H960M0 432H960M110 0V540M850 0V540" stroke="#39ff88" stroke-opacity=".08"/>
  <path d="M22 24H202M758 24H938M22 516H202M758 516H938" stroke="#ff2b4f" stroke-opacity=".72" stroke-width="4"/>
  <path class="spin" d="M84 270C204 32 756 32 876 270C756 508 204 508 84 270Z" stroke="#ff2b4f" stroke-opacity=".18" stroke-width="6" stroke-dasharray="26 18" fill="none"/>
  <g filter="url(#heavyGlow)">
    <g>
    <path d="M176 386C258 282 390 250 480 314C586 244 736 286 822 398C676 496 330 500 176 386Z" fill="#050b10" stroke="#39ff88" stroke-width="12"/>
    <path d="M264 426C386 342 574 342 704 430C590 506 388 506 264 426Z" fill="#020607" stroke="#ff2b4f" stroke-width="7"/>
    <path d="M480 370C162 348 62 238 120 128" stroke="#39ff88" stroke-width="28" stroke-linecap="round" fill="none"/>
    <path class="pulse" d="M54 148C82 84 162 76 202 136C164 200 86 204 54 148Z" fill="#061012" stroke="#39ff88" stroke-width="6"/>
    <path d="M86 142L112 128L104 158M150 140L176 126L168 158" stroke="#23f7dd" stroke-width="6" fill="none"/>
    <path d="M96 179C128 195 166 187 192 161" stroke="#ff2b4f" stroke-width="5" fill="none"/>
    <path class="flow" d="M136 206C130 258 164 284 142 344" stroke="#23f7dd" stroke-opacity=".52" stroke-width="5" stroke-dasharray="14 12" fill="none"/>
    <path d="M480 370C282 348 182 238 240 166" stroke="#ff2b4f" stroke-width="28" stroke-linecap="round" fill="none"/>
    <path class="pulse" d="M174 186C202 122 282 114 322 174C284 238 206 242 174 186Z" fill="#061012" stroke="#ff2b4f" stroke-width="6"/>
    <path d="M206 180L232 166L224 196M270 178L296 164L288 196" stroke="#23f7dd" stroke-width="6" fill="none"/>
    <path d="M216 217C248 233 286 225 312 199" stroke="#ff2b4f" stroke-width="5" fill="none"/>
    <path class="flow" d="M256 244C250 296 284 322 262 382" stroke="#23f7dd" stroke-opacity=".52" stroke-width="5" stroke-dasharray="14 12" fill="none"/>
    <path d="M480 370C402 348 302 238 360 204" stroke="#39ff88" stroke-width="28" stroke-linecap="round" fill="none"/>
    <path class="pulse" d="M294 224C322 160 402 152 442 212C404 276 326 280 294 224Z" fill="#061012" stroke="#39ff88" stroke-width="6"/>
    <path d="M326 218L352 204L344 234M390 216L416 202L408 234" stroke="#23f7dd" stroke-width="6" fill="none"/>
    <path d="M336 255C368 271 406 263 432 237" stroke="#ff2b4f" stroke-width="5" fill="none"/>
    <path class="flow" d="M376 282C370 334 404 360 382 420" stroke="#23f7dd" stroke-opacity=".52" stroke-width="5" stroke-dasharray="14 12" fill="none"/>
    <path d="M480 370C522 348 422 238 480 128" stroke="#ff2b4f" stroke-width="28" stroke-linecap="round" fill="none"/>
    <path class="pulse" d="M414 148C442 84 522 76 562 136C524 200 446 204 414 148Z" fill="#061012" stroke="#ff2b4f" stroke-width="6"/>
    <path d="M446 142L472 128L464 158M510 140L536 126L528 158" stroke="#23f7dd" stroke-width="6" fill="none"/>
    <path d="M456 179C488 195 526 187 552 161" stroke="#ff2b4f" stroke-width="5" fill="none"/>
    <path class="flow" d="M496 206C490 258 524 284 502 344" stroke="#23f7dd" stroke-opacity=".52" stroke-width="5" stroke-dasharray="14 12" fill="none"/>
    <path d="M480 370C642 348 542 238 600 166" stroke="#39ff88" stroke-width="28" stroke-linecap="round" fill="none"/>
    <path class="pulse" d="M534 186C562 122 642 114 682 174C644 238 566 242 534 186Z" fill="#061012" stroke="#39ff88" stroke-width="6"/>
    <path d="M566 180L592 166L584 196M630 178L656 164L648 196" stroke="#23f7dd" stroke-width="6" fill="none"/>
    <path d="M576 217C608 233 646 225 672 199" stroke="#ff2b4f" stroke-width="5" fill="none"/>
    <path class="flow" d="M616 244C610 296 644 322 622 382" stroke="#23f7dd" stroke-opacity=".52" stroke-width="5" stroke-dasharray="14 12" fill="none"/>
    <path d="M480 370C762 348 662 238 720 204" stroke="#ff2b4f" stroke-width="28" stroke-linecap="round" fill="none"/>
    <path class="pulse" d="M654 224C682 160 762 152 802 212C764 276 686 280 654 224Z" fill="#061012" stroke="#ff2b4f" stroke-width="6"/>
    <path d="M686 218L712 204L704 234M750 216L776 202L768 234" stroke="#23f7dd" stroke-width="6" fill="none"/>
    <path d="M696 255C728 271 766 263 792 237" stroke="#ff2b4f" stroke-width="5" fill="none"/>
    <path class="flow" d="M736 282C730 334 764 360 742 420" stroke="#23f7dd" stroke-opacity=".52" stroke-width="5" stroke-dasharray="14 12" fill="none"/>
    <path d="M480 370C882 348 782 238 840 128" stroke="#39ff88" stroke-width="28" stroke-linecap="round" fill="none"/>
    <path class="pulse" d="M774 148C802 84 882 76 922 136C884 200 806 204 774 148Z" fill="#061012" stroke="#39ff88" stroke-width="6"/>
    <path d="M806 142L832 128L824 158M870 140L896 126L888 158" stroke="#23f7dd" stroke-width="6" fill="none"/>
    <path d="M816 179C848 195 886 187 912 161" stroke="#ff2b4f" stroke-width="5" fill="none"/>
    <path class="flow" d="M856 206C850 258 884 284 862 344" stroke="#23f7dd" stroke-opacity=".52" stroke-width="5" stroke-dasharray="14 12" fill="none"/>
    <path class="flow" d="M112 462C292 382 446 510 606 426C704 374 806 404 914 458" stroke="#ff2b4f" stroke-opacity=".92" stroke-width="10" stroke-dasharray="36 12" fill="none"/>
    
    <path class="flow" d="M72 122C210 58 360 164 490 112C650 48 776 80 906 166M54 414C208 334 360 450 518 382C662 320 772 344 916 270" stroke="#ff2b4f" stroke-opacity=".42" stroke-width="6" stroke-linecap="round" stroke-dasharray="26 18" fill="none"/>
    <path class="shake" d="M190 72L246 154L198 230L276 304L218 426L288 510M742 58L694 146L760 238L690 314L744 430L686 512" stroke="#23f7dd" stroke-opacity=".64" stroke-width="5" fill="none"/>
  </g>
  </g>
  <g filter="url(#glow)">
    <path d="M36 42H174L208 76H36Z" fill="#020713" fill-opacity=".82" stroke="#39ff88" stroke-width="2"/>
    <text x="58" y="67" fill="#23f7dd" font-family="ui-monospace, SFMono-Regular, Menlo, Monaco, Consolas, monospace" font-size="22" font-weight="900">PHASE 3</text>
  </g>
</svg>
