<svg width="960" height="540" viewBox="0 0 960 540" fill="none" xmlns="http://www.w3.org/2000/svg" role="img" aria-labelledby="title desc">
  <title id="title">The Data Leak Hydra Final Nightmare Form</title>
  <desc id="desc">Final Nightmare form: a many-headed breach storm wrapped around a broken vault.</desc>
  <defs>
    <linearGradient id="bg" x1="0" y1="0" x2="960" y2="540" gradientUnits="userSpaceOnUse">
      <stop offset="0" stop-color="#050b14"/>
      <stop offset=".48" stop-color="#12051c"/>
      <stop offset="1" stop-color="#061b22"/>
    </linearGradient>
    <radialGradient id="core" cx="50%" cy="46%" r="50%">
      <stop offset="0" stop-color="#39ff88" stop-opacity=".32"/>
      <stop offset=".45" stop-color="#ff2b4f" stop-opacity=".16"/>
      <stop offset="1" stop-color="#020713" stop-opacity="0"/>
    </radialGradient>
    <pattern id="scan" width="9" height="9" patternUnits="userSpaceOnUse">
      <path d="M0 0H9" stroke="#39ff88" stroke-opacity=".08"/>
    </pattern>
    <filter id="glow" x="-30%" y="-30%" width="160%" height="160%">
      <feGaussianBlur stdDeviation="8" result="blur"/>
      <feMerge><feMergeNode in="blur"/><feMergeNode in="SourceGraphic"/></feMerge>
    </filter>
    <style>
      @keyframes pulse { 0%,100% { opacity: .55; } 50% { opacity: 1; } }
      @keyframes dash { to { stroke-dashoffset: -160; } }
      @keyframes spin { to { transform: rotate(360deg); } }
      @keyframes jitter { 0%,100% { transform: translate(0,0); } 20% { transform: translate(2px,-1px); } 40% { transform: translate(-2px,2px); } 60% { transform: translate(1px,2px); } 80% { transform: translate(-1px,-2px); } }
      @keyframes sweep { 0% { transform: translateX(-960px); } 100% { transform: translateX(960px); } }
      .pulse { animation: pulse 1.4s ease-in-out infinite; }
      .dash { animation: dash 2.4s linear infinite; }
      .spin { transform-origin: 480px 270px; animation: spin 6s linear infinite; }
      .jitter { animation: jitter 1.2000000000000002s steps(2,end) infinite; }
      .sweep { animation: sweep 4.4s linear infinite; }
    </style>
  </defs>
  <rect width="960" height="540" rx="22" fill="url(#bg)"/>
  <rect width="960" height="540" fill="url(#core)"/>
  <rect width="960" height="540" fill="url(#scan)"/>
  <rect class="sweep" x="0" y="0" width="264" height="540" fill="#39ff88" fill-opacity=".045"/>
  <path d="M0 90H960M0 180H960M0 270H960M0 360H960M0 450H960M120 0V540M240 0V540M360 0V540M480 0V540M600 0V540M720 0V540M840 0V540" stroke="#39ff88" stroke-opacity=".09"/>
  <rect x="28" y="28" width="904" height="484" rx="16" stroke="#39ff88" stroke-opacity=".78" stroke-width="2"/>
  <rect x="44" y="44" width="872" height="452" rx="8" stroke="#ff2b4f" stroke-opacity=".42"/>
  <text x="70" y="86" fill="#39ff88" font-family="ui-monospace, SFMono-Regular, Menlo, Monaco, Consolas, monospace" font-size="17" letter-spacing="3">RAID ENCOUNTER // PHASE 4</text>
  <text x="70" y="128" fill="#f7fbff" font-family="ui-monospace, SFMono-Regular, Menlo, Monaco, Consolas, monospace" font-size="36" font-weight="900">The Data Leak Hydra</text>
  <text x="70" y="158" fill="#23f7dd" font-family="ui-monospace, SFMono-Regular, Menlo, Monaco, Consolas, monospace" font-size="18">Breach-Headed Security Monster</text>
  <text x="70" y="498" fill="#23f7dd" font-family="ui-monospace, SFMono-Regular, Menlo, Monaco, Consolas, monospace" font-size="16">CORRUPTION 100% // Final Nightmare Form</text>
  <g filter="url(#glow)">
    <g>
    <ellipse cx="480" cy="336" rx="204" ry="110" fill="#07101b" stroke="#39ff88" stroke-width="5"/>
    <path d="M480 310C232 266 244 206 260 112" stroke="#39ff88" stroke-width="22" fill="none"/>
    <polygon class="pulse" points="224,130 260,82 302,126 274,160 232,154" fill="#061522" stroke="#39ff88" stroke-width="4"/>
    <circle cx="250" cy="126" r="5" fill="#23f7dd"/>
    <circle cx="276" cy="126" r="5" fill="#23f7dd"/>
    <path d="M480 310C320 266 332 206 348 146" stroke="#ff2b4f" stroke-width="22" fill="none"/>
    <polygon class="pulse" points="312,164 348,116 390,160 362,194 320,188" fill="#061522" stroke="#ff2b4f" stroke-width="4"/>
    <circle cx="338" cy="160" r="5" fill="#23f7dd"/>
    <circle cx="364" cy="160" r="5" fill="#23f7dd"/>
    <path d="M480 310C408 266 420 206 436 112" stroke="#39ff88" stroke-width="22" fill="none"/>
    <polygon class="pulse" points="400,130 436,82 478,126 450,160 408,154" fill="#061522" stroke="#39ff88" stroke-width="4"/>
    <circle cx="426" cy="126" r="5" fill="#23f7dd"/>
    <circle cx="452" cy="126" r="5" fill="#23f7dd"/>
    <path d="M480 310C496 266 508 206 524 146" stroke="#ff2b4f" stroke-width="22" fill="none"/>
    <polygon class="pulse" points="488,164 524,116 566,160 538,194 496,188" fill="#061522" stroke="#ff2b4f" stroke-width="4"/>
    <circle cx="514" cy="160" r="5" fill="#23f7dd"/>
    <circle cx="540" cy="160" r="5" fill="#23f7dd"/>
    <path d="M480 310C584 266 596 206 612 112" stroke="#39ff88" stroke-width="22" fill="none"/>
    <polygon class="pulse" points="576,130 612,82 654,126 626,160 584,154" fill="#061522" stroke="#39ff88" stroke-width="4"/>
    <circle cx="602" cy="126" r="5" fill="#23f7dd"/>
    <circle cx="628" cy="126" r="5" fill="#23f7dd"/>
    <path d="M480 310C672 266 684 206 700 146" stroke="#ff2b4f" stroke-width="22" fill="none"/>
    <polygon class="pulse" points="664,164 700,116 742,160 714,194 672,188" fill="#061522" stroke="#ff2b4f" stroke-width="4"/>
    <circle cx="690" cy="160" r="5" fill="#23f7dd"/>
    <circle cx="716" cy="160" r="5" fill="#23f7dd"/>
    <path class="dash" d="M248 420H716M290 452H676M330 484H628" stroke="#ff2b4f" stroke-opacity=".8" stroke-width="5" stroke-dasharray="24 12"/>
    <path d="M190 108H770V492H190Z" stroke="#ff2b4f" stroke-width="4" stroke-dasharray="10 14" fill="none"/>
  </g>
  </g>
  <path d="M70 460H890" stroke="#ff2b4f" stroke-opacity=".75" stroke-width="4" stroke-dasharray="30 12"/>
  <text x="890" y="86" text-anchor="end" fill="#ff2b4f" font-family="ui-monospace, SFMono-Regular, Menlo, Monaco, Consolas, monospace" font-size="18">THREAT APOCALYPSE</text>
</svg>
