<svg width="960" height="540" viewBox="0 0 960 540" fill="none" xmlns="http://www.w3.org/2000/svg" role="img" aria-labelledby="title desc">
  <title id="title">The Data Leak Hydra Final Nightmare Form</title>
  <desc id="desc">Final Nightmare form: a many-headed breach storm wrapped around a broken vault.</desc>
  <defs>
    <linearGradient id="bg" x1="0" y1="0" x2="960" y2="540" gradientUnits="userSpaceOnUse">
      <stop offset="0" stop-color="#050b14"/>
      <stop offset=".48" stop-color="#12051c"/>
      <stop offset="1" stop-color="#061b22"/>
    </linearGradient>
    <radialGradient id="core" cx="50%" cy="46%" r="50%">
      <stop offset="0" stop-color="#39ff88" stop-opacity=".32"/>
      <stop offset=".45" stop-color="#ff2b4f" stop-opacity=".16"/>
      <stop offset="1" stop-color="#020713" stop-opacity="0"/>
    </radialGradient>
    <pattern id="scan" width="9" height="9" patternUnits="userSpaceOnUse">
      <path d="M0 0H9" stroke="#39ff88" stroke-opacity=".08"/>
    </pattern>
    <filter id="glow" x="-30%" y="-30%" width="160%" height="160%">
      <feGaussianBlur stdDeviation="8" result="blur"/>
      <feMerge><feMergeNode in="blur"/><feMergeNode in="SourceGraphic"/></feMerge>
    </filter>
    <filter id="heavyGlow" x="-50%" y="-50%" width="200%" height="200%">
      <feGaussianBlur stdDeviation="16" result="blur"/>
      <feMerge><feMergeNode in="blur"/><feMergeNode in="SourceGraphic"/></feMerge>
    </filter>
    <style>
      @keyframes pulse { 0%,100% { opacity: .55; } 50% { opacity: 1; } }
      @keyframes spin { to { transform: rotate(360deg); } }
      @keyframes shake { 0%,100% { transform: translate(0,0); } 20% { transform: translate(3px,-2px); } 40% { transform: translate(-3px,2px); } 60% { transform: translate(2px,3px); } 80% { transform: translate(-2px,-3px); } }
      @keyframes drift { 0%,100% { transform: translateX(0); } 50% { transform: translateX(16px); } }
      @keyframes sweep { 0% { transform: translateX(-960px); } 100% { transform: translateX(960px); } }
      @keyframes flow { to { stroke-dashoffset: -220; } }
      .pulse { animation: pulse 1.4s ease-in-out infinite; }
      .spin { transform-origin: 480px 270px; animation: spin 6s linear infinite; }
      .shake { animation: shake 1.08s steps(2,end) infinite; }
      .drift { animation: drift 3.6000000000000005s ease-in-out infinite; }
      .sweep { animation: sweep 4.4s linear infinite; }
      .flow { animation: flow 3.2s linear infinite; }
    </style>
  </defs>
  <rect width="960" height="540" fill="url(#bg)"/>
  <rect width="960" height="540" fill="url(#core)"/>
  <rect width="960" height="540" fill="url(#scan)"/>
  <rect class="sweep" x="0" y="0" width="264" height="540" fill="#39ff88" fill-opacity=".045"/>
  <path d="M0 108H960M0 432H960M110 0V540M850 0V540" stroke="#39ff88" stroke-opacity=".08"/>
  <path d="M22 24H202M758 24H938M22 516H202M758 516H938" stroke="#ff2b4f" stroke-opacity=".72" stroke-width="4"/>
  <path class="spin" d="M84 270C204 32 756 32 876 270C756 508 204 508 84 270Z" stroke="#ff2b4f" stroke-opacity=".18" stroke-width="7" stroke-dasharray="26 18" fill="none"/>
  <g filter="url(#heavyGlow)">
    <g>
    <path d="M176 386C258 282 390 250 480 314C586 244 736 286 822 398C676 496 330 500 176 386Z" fill="#050b10" stroke="#39ff88" stroke-width="13"/>
    <path d="M264 426C386 342 574 342 704 430C590 506 388 506 264 426Z" fill="#020607" stroke="#ff2b4f" stroke-width="7"/>
    <path d="M480 370C162 348 62 238 120 116" stroke="#39ff88" stroke-width="30" stroke-linecap="round" fill="none"/>
    <path class="pulse" d="M54 136C82 72 162 64 202 124C164 188 86 192 54 136Z" fill="#061012" stroke="#39ff88" stroke-width="6"/>
    <path d="M86 130L112 116L104 146M150 128L176 114L168 146" stroke="#23f7dd" stroke-width="6" fill="none"/>
    <path d="M96 170C128 186 166 178 192 152" stroke="#ff2b4f" stroke-width="5" fill="none"/>
    <path class="flow" d="M136 194C130 246 164 272 142 332" stroke="#23f7dd" stroke-opacity=".52" stroke-width="5" stroke-dasharray="14 12" fill="none"/>
    <path d="M480 370C252 348 152 238 210 154" stroke="#ff2b4f" stroke-width="30" stroke-linecap="round" fill="none"/>
    <path class="pulse" d="M144 174C172 110 252 102 292 162C254 226 176 230 144 174Z" fill="#061012" stroke="#ff2b4f" stroke-width="6"/>
    <path d="M176 168L202 154L194 184M240 166L266 152L258 184" stroke="#23f7dd" stroke-width="6" fill="none"/>
    <path d="M186 208C218 224 256 216 282 190" stroke="#ff2b4f" stroke-width="5" fill="none"/>
    <path class="flow" d="M226 232C220 284 254 310 232 370" stroke="#23f7dd" stroke-opacity=".52" stroke-width="5" stroke-dasharray="14 12" fill="none"/>
    <path d="M480 370C342 348 242 238 300 192" stroke="#39ff88" stroke-width="30" stroke-linecap="round" fill="none"/>
    <path class="pulse" d="M234 212C262 148 342 140 382 200C344 264 266 268 234 212Z" fill="#061012" stroke="#39ff88" stroke-width="6"/>
    <path d="M266 206L292 192L284 222M330 204L356 190L348 222" stroke="#23f7dd" stroke-width="6" fill="none"/>
    <path d="M276 246C308 262 346 254 372 228" stroke="#ff2b4f" stroke-width="5" fill="none"/>
    <path class="flow" d="M316 270C310 322 344 348 322 408" stroke="#23f7dd" stroke-opacity=".52" stroke-width="5" stroke-dasharray="14 12" fill="none"/>
    <path d="M480 370C432 348 332 238 390 116" stroke="#ff2b4f" stroke-width="30" stroke-linecap="round" fill="none"/>
    <path class="pulse" d="M324 136C352 72 432 64 472 124C434 188 356 192 324 136Z" fill="#061012" stroke="#ff2b4f" stroke-width="6"/>
    <path d="M356 130L382 116L374 146M420 128L446 114L438 146" stroke="#23f7dd" stroke-width="6" fill="none"/>
    <path d="M366 170C398 186 436 178 462 152" stroke="#ff2b4f" stroke-width="5" fill="none"/>
    <path class="flow" d="M406 194C400 246 434 272 412 332" stroke="#23f7dd" stroke-opacity=".52" stroke-width="5" stroke-dasharray="14 12" fill="none"/>
    <path d="M480 370C522 348 422 238 480 154" stroke="#39ff88" stroke-width="30" stroke-linecap="round" fill="none"/>
    <path class="pulse" d="M414 174C442 110 522 102 562 162C524 226 446 230 414 174Z" fill="#061012" stroke="#39ff88" stroke-width="6"/>
    <path d="M446 168L472 154L464 184M510 166L536 152L528 184" stroke="#23f7dd" stroke-width="6" fill="none"/>
    <path d="M456 208C488 224 526 216 552 190" stroke="#ff2b4f" stroke-width="5" fill="none"/>
    <path class="flow" d="M496 232C490 284 524 310 502 370" stroke="#23f7dd" stroke-opacity=".52" stroke-width="5" stroke-dasharray="14 12" fill="none"/>
    <path d="M480 370C612 348 512 238 570 192" stroke="#ff2b4f" stroke-width="30" stroke-linecap="round" fill="none"/>
    <path class="pulse" d="M504 212C532 148 612 140 652 200C614 264 536 268 504 212Z" fill="#061012" stroke="#ff2b4f" stroke-width="6"/>
    <path d="M536 206L562 192L554 222M600 204L626 190L618 222" stroke="#23f7dd" stroke-width="6" fill="none"/>
    <path d="M546 246C578 262 616 254 642 228" stroke="#ff2b4f" stroke-width="5" fill="none"/>
    <path class="flow" d="M586 270C580 322 614 348 592 408" stroke="#23f7dd" stroke-opacity=".52" stroke-width="5" stroke-dasharray="14 12" fill="none"/>
    <path d="M480 370C702 348 602 238 660 116" stroke="#39ff88" stroke-width="30" stroke-linecap="round" fill="none"/>
    <path class="pulse" d="M594 136C622 72 702 64 742 124C704 188 626 192 594 136Z" fill="#061012" stroke="#39ff88" stroke-width="6"/>
    <path d="M626 130L652 116L644 146M690 128L716 114L708 146" stroke="#23f7dd" stroke-width="6" fill="none"/>
    <path d="M636 170C668 186 706 178 732 152" stroke="#ff2b4f" stroke-width="5" fill="none"/>
    <path class="flow" d="M676 194C670 246 704 272 682 332" stroke="#23f7dd" stroke-opacity=".52" stroke-width="5" stroke-dasharray="14 12" fill="none"/>
    <path d="M480 370C792 348 692 238 750 154" stroke="#ff2b4f" stroke-width="30" stroke-linecap="round" fill="none"/>
    <path class="pulse" d="M684 174C712 110 792 102 832 162C794 226 716 230 684 174Z" fill="#061012" stroke="#ff2b4f" stroke-width="6"/>
    <path d="M716 168L742 154L734 184M780 166L806 152L798 184" stroke="#23f7dd" stroke-width="6" fill="none"/>
    <path d="M726 208C758 224 796 216 822 190" stroke="#ff2b4f" stroke-width="5" fill="none"/>
    <path class="flow" d="M766 232C760 284 794 310 772 370" stroke="#23f7dd" stroke-opacity=".52" stroke-width="5" stroke-dasharray="14 12" fill="none"/>
    <path d="M480 370C882 348 782 238 840 192" stroke="#39ff88" stroke-width="30" stroke-linecap="round" fill="none"/>
    <path class="pulse" d="M774 212C802 148 882 140 922 200C884 264 806 268 774 212Z" fill="#061012" stroke="#39ff88" stroke-width="6"/>
    <path d="M806 206L832 192L824 222M870 204L896 190L888 222" stroke="#23f7dd" stroke-width="6" fill="none"/>
    <path d="M816 246C848 262 886 254 912 228" stroke="#ff2b4f" stroke-width="5" fill="none"/>
    <path class="flow" d="M856 270C850 322 884 348 862 408" stroke="#23f7dd" stroke-opacity=".52" stroke-width="5" stroke-dasharray="14 12" fill="none"/>
    <path class="flow" d="M112 462C292 382 446 510 606 426C704 374 806 404 914 458" stroke="#ff2b4f" stroke-opacity=".92" stroke-width="11" stroke-dasharray="44 12" fill="none"/>
    <path class="shake" d="M48 94C248 34 680 30 920 104C824 164 826 238 906 318C680 274 318 274 64 326C156 232 150 158 48 94Z" stroke="#ff2b4f" stroke-width="8" fill="#ff2b4f" fill-opacity=".12"/>
    <path class="flow" d="M72 122C210 58 360 164 490 112C650 48 776 80 906 166M54 414C208 334 360 450 518 382C662 320 772 344 916 270" stroke="#ff2b4f" stroke-opacity=".74" stroke-width="7" stroke-linecap="round" stroke-dasharray="26 18" fill="none"/>
    <path class="shake" d="M190 72L246 154L198 230L276 304L218 426L288 510M742 58L694 146L760 238L690 314L744 430L686 512" stroke="#23f7dd" stroke-opacity=".64" stroke-width="6" fill="none"/>
  </g>
  </g>
  <g filter="url(#glow)">
    <path d="M36 42H174L208 76H36Z" fill="#020713" fill-opacity=".82" stroke="#39ff88" stroke-width="2"/>
    <text x="58" y="67" fill="#23f7dd" font-family="ui-monospace, SFMono-Regular, Menlo, Monaco, Consolas, monospace" font-size="22" font-weight="900">PHASE 4</text>
  </g>
</svg>
