<svg width="960" height="540" viewBox="0 0 960 540" fill="none" xmlns="http://www.w3.org/2000/svg" role="img" aria-labelledby="title desc">
  <title id="title">The GPU Devourer Corrupted Form</title>
  <desc id="desc">Corrupted form: molten cache spills from its chassis and burns the grid.</desc>
  <defs>
    <linearGradient id="bg" x1="0" y1="0" x2="960" y2="540" gradientUnits="userSpaceOnUse">
      <stop offset="0" stop-color="#050b14"/>
      <stop offset=".48" stop-color="#12051c"/>
      <stop offset="1" stop-color="#061b22"/>
    </linearGradient>
    <radialGradient id="core" cx="50%" cy="46%" r="50%">
      <stop offset="0" stop-color="#ff6b1a" stop-opacity=".32"/>
      <stop offset=".45" stop-color="#ffe95e" stop-opacity=".16"/>
      <stop offset="1" stop-color="#020713" stop-opacity="0"/>
    </radialGradient>
    <pattern id="scan" width="9" height="9" patternUnits="userSpaceOnUse">
      <path d="M0 0H9" stroke="#ff6b1a" stroke-opacity=".08"/>
    </pattern>
    <filter id="glow" x="-30%" y="-30%" width="160%" height="160%">
      <feGaussianBlur stdDeviation="8" result="blur"/>
      <feMerge><feMergeNode in="blur"/><feMergeNode in="SourceGraphic"/></feMerge>
    </filter>
    <filter id="heavyGlow" x="-50%" y="-50%" width="200%" height="200%">
      <feGaussianBlur stdDeviation="16" result="blur"/>
      <feMerge><feMergeNode in="blur"/><feMergeNode in="SourceGraphic"/></feMerge>
    </filter>
    <style>
      @keyframes pulse { 0%,100% { opacity: .55; } 50% { opacity: 1; } }
      @keyframes spin { to { transform: rotate(360deg); } }
      @keyframes shake { 0%,100% { transform: translate(0,0); } 20% { transform: translate(3px,-2px); } 40% { transform: translate(-3px,2px); } 60% { transform: translate(2px,3px); } 80% { transform: translate(-2px,-3px); } }
      @keyframes drift { 0%,100% { transform: translateX(0); } 50% { transform: translateX(16px); } }
      @keyframes sweep { 0% { transform: translateX(-960px); } 100% { transform: translateX(960px); } }
      @keyframes flow { to { stroke-dashoffset: -220; } }
      .pulse { animation: pulse 1.65s ease-in-out infinite; }
      .spin { transform-origin: 480px 270px; animation: spin 8s linear infinite; }
      .shake { animation: shake 1.36s steps(2,end) infinite; }
      .drift { animation: drift 4.050000000000001s ease-in-out infinite; }
      .sweep { animation: sweep 4.8s linear infinite; }
      .flow { animation: flow 3.7s linear infinite; }
    </style>
  </defs>
  <rect width="960" height="540" fill="url(#bg)"/>
  <rect width="960" height="540" fill="url(#core)"/>
  <rect width="960" height="540" fill="url(#scan)"/>
  <rect class="sweep" x="0" y="0" width="228" height="540" fill="#ff6b1a" fill-opacity=".045"/>
  <path d="M0 108H960M0 432H960M110 0V540M850 0V540" stroke="#ff6b1a" stroke-opacity=".08"/>
  <path d="M22 24H202M758 24H938M22 516H202M758 516H938" stroke="#ffe95e" stroke-opacity=".72" stroke-width="4"/>
  <path class="spin" d="M84 270C204 32 756 32 876 270C756 508 204 508 84 270Z" stroke="#ffe95e" stroke-opacity=".18" stroke-width="6" stroke-dasharray="26 18" fill="none"/>
  <g filter="url(#heavyGlow)">
    <g>
    <path class="shake" d="M346 244C218 108 108 104 54 232C170 206 242 274 352 312Z" fill="#080b13" stroke="#ffe95e" stroke-width="9" stroke-linejoin="round"/>
    <path class="shake" d="M604 230C730 86 864 82 922 210C796 196 728 272 608 304Z" fill="#080b13" stroke="#ffe95e" stroke-width="9" stroke-linejoin="round"/>
    <path d="M86 332C172 226 300 176 458 192C584 206 660 242 736 214C660 336 548 420 358 412C248 406 154 376 86 332Z" fill="#060a12" stroke="#ff6b1a" stroke-width="11" stroke-linejoin="round"/>
    <path d="M118 338C70 292 58 204 108 132C158 226 252 236 336 286C246 284 178 306 118 338Z" fill="#090f18" stroke="#ffe95e" stroke-width="8"/>
    <path class="pulse" d="M220 231L248 135L278 231Z" fill="#070b12" stroke="#ff6b1a" stroke-width="4.8"/>
    <path class="pulse" d="M278 209.06684653043047L306 113.06684653043047L336 209.06684653043047Z" fill="#070b12" stroke="#ffe95e" stroke-width="4.8"/>
    <path class="pulse" d="M336 203.73226633541054L364 107.73226633541054L394 203.73226633541054Z" fill="#070b12" stroke="#ff6b1a" stroke-width="4.8"/>
    <path class="pulse" d="M394 219.03336335345276L422 123.03336335345276L452 219.03336335345276Z" fill="#070b12" stroke="#ffe95e" stroke-width="4.8"/>
    <path class="pulse" d="M452 243.39057241225586L480 147.39057241225586L510 243.39057241225586Z" fill="#070b12" stroke="#ff6b1a" stroke-width="4.8"/>
    <path class="pulse" d="M510 258.3708432946227L538 162.37084329462272L568 258.3708432946227Z" fill="#070b12" stroke="#ffe95e" stroke-width="4.8"/>
    <path class="pulse" d="M568 252.63740565156763L596 156.63740565156763L626 252.63740565156763Z" fill="#070b12" stroke="#ff6b1a" stroke-width="4.8"/>
    <path class="pulse" d="M626 230.5292107864382L654 134.5292107864382L684 230.5292107864382Z" fill="#070b12" stroke="#ffe95e" stroke-width="4.8"/>
    <path class="pulse" d="M684 208.7772998122237L712 112.7772998122237L742 208.7772998122237Z" fill="#070b12" stroke="#ff6b1a" stroke-width="4.8"/>
    <path class="pulse" d="M742 203.8430852963376L770 107.84308529633759L800 203.8430852963376Z" fill="#070b12" stroke="#ffe95e" stroke-width="4.8"/>
    <path class="pulse" d="M690 186L766 160L850 206L774 226L842 260L736 256L690 224Z" fill="#070b12" stroke="#ffe95e" stroke-width="10"/>
    <path d="M724 200L754 216L722 228M782 196L814 210L780 226" stroke="#23f7dd" stroke-width="6" stroke-linecap="round"/>
    <path class="pulse" d="M390 282C438 222 526 220 574 286C540 352 426 354 390 282Z" fill="#ff6b1a" fill-opacity=".62" stroke="#23f7dd" stroke-width="8"/>
    <path class="flow" d="M426 290C374 360 382 424 330 500M526 292C584 366 574 430 630 512" stroke="#ff6b1a" stroke-width="11" stroke-linecap="round" stroke-dasharray="20 14" fill="none"/>
    <path d="M246 382L156 506M354 404L314 526M590 398L662 528M688 350L836 486" stroke="#ff6b1a" stroke-width="20" stroke-linecap="round"/>
    <path d="M166 506L112 510M314 526L272 524M662 528L708 522M836 486L890 498" stroke="#ffe95e" stroke-width="9" stroke-linecap="round"/>
    
    <path class="flow" d="M72 122C210 58 360 164 490 112C650 48 776 80 906 166M54 414C208 334 360 450 518 382C662 320 772 344 916 270" stroke="#ffe95e" stroke-opacity=".34" stroke-width="6" stroke-linecap="round" stroke-dasharray="26 18" fill="none"/>
    <path class="shake" d="M190 72L246 154L198 230L276 304L218 426L288 510M742 58L694 146L760 238L690 314L744 430L686 512" stroke="#23f7dd" stroke-opacity=".64" stroke-width="5" fill="none"/>
  </g>
  </g>
  <g filter="url(#glow)">
    <path d="M36 42H174L208 76H36Z" fill="#020713" fill-opacity=".82" stroke="#ff6b1a" stroke-width="2"/>
    <text x="58" y="67" fill="#23f7dd" font-family="ui-monospace, SFMono-Regular, Menlo, Monaco, Consolas, monospace" font-size="22" font-weight="900">PHASE 3</text>
  </g>
</svg>
