<svg width="960" height="540" viewBox="0 0 960 540" fill="none" xmlns="http://www.w3.org/2000/svg" role="img" aria-labelledby="title desc">
  <title id="title">The GPU Devourer Normal Form</title>
  <desc id="desc">Normal form: a plated machine with a restrained thermal core.</desc>
  <defs>
    <linearGradient id="bg" x1="0" y1="0" x2="960" y2="540" gradientUnits="userSpaceOnUse">
      <stop offset="0" stop-color="#050b14"/>
      <stop offset=".48" stop-color="#12051c"/>
      <stop offset="1" stop-color="#061b22"/>
    </linearGradient>
    <radialGradient id="core" cx="50%" cy="46%" r="50%">
      <stop offset="0" stop-color="#ff6b1a" stop-opacity=".32"/>
      <stop offset=".45" stop-color="#ffe95e" stop-opacity=".16"/>
      <stop offset="1" stop-color="#020713" stop-opacity="0"/>
    </radialGradient>
    <pattern id="scan" width="9" height="9" patternUnits="userSpaceOnUse">
      <path d="M0 0H9" stroke="#ff6b1a" stroke-opacity=".08"/>
    </pattern>
    <filter id="glow" x="-30%" y="-30%" width="160%" height="160%">
      <feGaussianBlur stdDeviation="8" result="blur"/>
      <feMerge><feMergeNode in="blur"/><feMergeNode in="SourceGraphic"/></feMerge>
    </filter>
    <filter id="heavyGlow" x="-50%" y="-50%" width="200%" height="200%">
      <feGaussianBlur stdDeviation="16" result="blur"/>
      <feMerge><feMergeNode in="blur"/><feMergeNode in="SourceGraphic"/></feMerge>
    </filter>
    <style>
      @keyframes pulse { 0%,100% { opacity: .55; } 50% { opacity: 1; } }
      @keyframes spin { to { transform: rotate(360deg); } }
      @keyframes shake { 0%,100% { transform: translate(0,0); } 20% { transform: translate(3px,-2px); } 40% { transform: translate(-3px,2px); } 60% { transform: translate(2px,3px); } 80% { transform: translate(-2px,-3px); } }
      @keyframes drift { 0%,100% { transform: translateX(0); } 50% { transform: translateX(16px); } }
      @keyframes sweep { 0% { transform: translateX(-960px); } 100% { transform: translateX(960px); } }
      @keyframes flow { to { stroke-dashoffset: -220; } }
      .pulse { animation: pulse 2.15s ease-in-out infinite; }
      .spin { transform-origin: 480px 270px; animation: spin 12s linear infinite; }
      .shake { animation: shake 1.9200000000000002s steps(2,end) infinite; }
      .drift { animation: drift 4.95s ease-in-out infinite; }
      .sweep { animation: sweep 5.6s linear infinite; }
      .flow { animation: flow 4.7s linear infinite; }
    </style>
  </defs>
  <rect width="960" height="540" fill="url(#bg)"/>
  <rect width="960" height="540" fill="url(#core)"/>
  <rect width="960" height="540" fill="url(#scan)"/>
  <rect class="sweep" x="0" y="0" width="156" height="540" fill="#ff6b1a" fill-opacity=".045"/>
  <path d="M0 108H960M0 432H960M110 0V540M850 0V540" stroke="#ff6b1a" stroke-opacity=".08"/>
  <path d="M22 24H202M758 24H938M22 516H202M758 516H938" stroke="#ffe95e" stroke-opacity=".72" stroke-width="4"/>
  <path class="spin" d="M84 270C204 32 756 32 876 270C756 508 204 508 84 270Z" stroke="#ffe95e" stroke-opacity=".18" stroke-width="4" stroke-dasharray="26 18" fill="none"/>
  <g filter="url(#heavyGlow)">
    <g>
    
    <path d="M86 332C172 226 300 176 458 192C584 206 660 242 736 214C660 336 548 420 358 412C248 406 154 376 86 332Z" fill="#060a12" stroke="#ff6b1a" stroke-width="9" stroke-linejoin="round"/>
    <path d="M118 338C70 292 58 204 108 132C158 226 252 236 336 286C246 284 178 306 118 338Z" fill="#090f18" stroke="#ffe95e" stroke-width="8"/>
    <path class="pulse" d="M220 245L248 169L278 245Z" fill="#070b12" stroke="#ff6b1a" stroke-width="3.6"/>
    <path class="pulse" d="M278 223.06684653043047L306 147.06684653043047L336 223.06684653043047Z" fill="#070b12" stroke="#ffe95e" stroke-width="3.6"/>
    <path class="pulse" d="M336 217.73226633541054L364 141.73226633541054L394 217.73226633541054Z" fill="#070b12" stroke="#ff6b1a" stroke-width="3.6"/>
    <path class="pulse" d="M394 233.03336335345276L422 157.03336335345276L452 233.03336335345276Z" fill="#070b12" stroke="#ffe95e" stroke-width="3.6"/>
    <path class="pulse" d="M452 257.3905724122559L480 181.3905724122559L510 257.3905724122559Z" fill="#070b12" stroke="#ff6b1a" stroke-width="3.6"/>
    <path class="pulse" d="M510 272.3708432946227L538 196.37084329462272L568 272.3708432946227Z" fill="#070b12" stroke="#ffe95e" stroke-width="3.6"/>
    <path class="pulse" d="M568 266.63740565156763L596 190.63740565156763L626 266.63740565156763Z" fill="#070b12" stroke="#ff6b1a" stroke-width="3.6"/>
    <path class="pulse" d="M626 244.5292107864382L654 168.5292107864382L684 244.5292107864382Z" fill="#070b12" stroke="#ffe95e" stroke-width="3.6"/>
    <path class="pulse" d="M690 186L766 160L850 206L774 226L842 260L736 256L690 224Z" fill="#070b12" stroke="#ffe95e" stroke-width="8"/>
    <path d="M724 200L754 216L722 228M782 196L814 210L780 226" stroke="#23f7dd" stroke-width="6" stroke-linecap="round"/>
    <path class="pulse" d="M410 286C452 246 516 246 558 288C516 318 454 318 410 286Z" fill="#23f7dd" fill-opacity=".42" stroke="#23f7dd" stroke-width="6"/>
    <path d="M246 382L156 506M354 404L314 526M590 398L662 528M688 350L836 486" stroke="#ff6b1a" stroke-width="16" stroke-linecap="round"/>
    <path d="M166 506L112 510M314 526L272 524M662 528L708 522M836 486L890 498" stroke="#ffe95e" stroke-width="9" stroke-linecap="round"/>
    
    <path class="flow" d="M72 122C210 58 360 164 490 112C650 48 776 80 906 166M54 414C208 334 360 450 518 382C662 320 772 344 916 270" stroke="#ffe95e" stroke-opacity=".34" stroke-width="4" stroke-linecap="round" stroke-dasharray="26 18" fill="none"/>
    <path class="shake" d="M190 72L246 154L198 230L276 304L218 426L288 510M742 58L694 146L760 238L690 314L744 430L686 512" stroke="#23f7dd" stroke-opacity=".28" stroke-width="3" fill="none"/>
  </g>
  </g>
  <g filter="url(#glow)">
    <path d="M36 42H174L208 76H36Z" fill="#020713" fill-opacity=".82" stroke="#ff6b1a" stroke-width="2"/>
    <text x="58" y="67" fill="#23f7dd" font-family="ui-monospace, SFMono-Regular, Menlo, Monaco, Consolas, monospace" font-size="22" font-weight="900">PHASE 1</text>
  </g>
</svg>
