<svg width="960" height="540" viewBox="0 0 960 540" fill="none" xmlns="http://www.w3.org/2000/svg" role="img" aria-labelledby="title desc">
  <title id="title">The Gradient Vanisher Mutated Form</title>
  <desc id="desc">Mutated form: its limbs smear into fading echoes that lag behind its body.</desc>
  <defs>
    <linearGradient id="bg" x1="0" y1="0" x2="960" y2="540" gradientUnits="userSpaceOnUse">
      <stop offset="0" stop-color="#050b14"/>
      <stop offset=".48" stop-color="#12051c"/>
      <stop offset="1" stop-color="#061b22"/>
    </linearGradient>
    <radialGradient id="core" cx="50%" cy="46%" r="50%">
      <stop offset="0" stop-color="#b8f7ff" stop-opacity=".32"/>
      <stop offset=".45" stop-color="#7a5cff" stop-opacity=".16"/>
      <stop offset="1" stop-color="#020713" stop-opacity="0"/>
    </radialGradient>
    <pattern id="scan" width="9" height="9" patternUnits="userSpaceOnUse">
      <path d="M0 0H9" stroke="#b8f7ff" stroke-opacity=".08"/>
    </pattern>
    <filter id="glow" x="-30%" y="-30%" width="160%" height="160%">
      <feGaussianBlur stdDeviation="8" result="blur"/>
      <feMerge><feMergeNode in="blur"/><feMergeNode in="SourceGraphic"/></feMerge>
    </filter>
    <filter id="heavyGlow" x="-50%" y="-50%" width="200%" height="200%">
      <feGaussianBlur stdDeviation="16" result="blur"/>
      <feMerge><feMergeNode in="blur"/><feMergeNode in="SourceGraphic"/></feMerge>
    </filter>
    <style>
      @keyframes pulse { 0%,100% { opacity: .55; } 50% { opacity: 1; } }
      @keyframes spin { to { transform: rotate(360deg); } }
      @keyframes shake { 0%,100% { transform: translate(0,0); } 20% { transform: translate(3px,-2px); } 40% { transform: translate(-3px,2px); } 60% { transform: translate(2px,3px); } 80% { transform: translate(-2px,-3px); } }
      @keyframes drift { 0%,100% { transform: translateX(0); } 50% { transform: translateX(16px); } }
      @keyframes sweep { 0% { transform: translateX(-960px); } 100% { transform: translateX(960px); } }
      @keyframes flow { to { stroke-dashoffset: -220; } }
      .pulse { animation: pulse 1.9s ease-in-out infinite; }
      .spin { transform-origin: 480px 270px; animation: spin 10s linear infinite; }
      .shake { animation: shake 1.6400000000000001s steps(2,end) infinite; }
      .drift { animation: drift 4.5s ease-in-out infinite; }
      .sweep { animation: sweep 5.2s linear infinite; }
      .flow { animation: flow 4.2s linear infinite; }
    </style>
  </defs>
  <rect width="960" height="540" fill="url(#bg)"/>
  <rect width="960" height="540" fill="url(#core)"/>
  <rect width="960" height="540" fill="url(#scan)"/>
  <rect class="sweep" x="0" y="0" width="192" height="540" fill="#b8f7ff" fill-opacity=".045"/>
  <path d="M0 108H960M0 432H960M110 0V540M850 0V540" stroke="#b8f7ff" stroke-opacity=".08"/>
  <path d="M22 24H202M758 24H938M22 516H202M758 516H938" stroke="#7a5cff" stroke-opacity=".72" stroke-width="4"/>
  <path class="spin" d="M84 270C204 32 756 32 876 270C756 508 204 508 84 270Z" stroke="#7a5cff" stroke-opacity=".18" stroke-width="5" stroke-dasharray="26 18" fill="none"/>
  <g filter="url(#heavyGlow)">
    <g>
    <path class="drift" d="M356 56C292 150 280 374 374 516C516 448 598 318 568 184C546 102 488 72 356 56Z" fill="#b8f7ff" fill-opacity="0.44" stroke="#ff2bd6" stroke-opacity="0.44" stroke-width="3"/>
    <path class="drift" d="M388 56C292 150 280 374 406 516C516 448 598 318 568 184C546 102 488 72 388 56Z" fill="#7a5cff" fill-opacity="0.395" stroke="#ff2bd6" stroke-opacity="0.395" stroke-width="3"/>
    <path class="drift" d="M420 56C292 150 280 374 438 516C516 448 598 318 568 184C546 102 488 72 420 56Z" fill="#b8f7ff" fill-opacity="0.35" stroke="#ff2bd6" stroke-opacity="0.35" stroke-width="3"/>
    <path class="drift" d="M452 56C292 150 280 374 470 516C516 448 598 318 568 184C546 102 488 72 452 56Z" fill="#7a5cff" fill-opacity="0.305" stroke="#ff2bd6" stroke-opacity="0.305" stroke-width="3"/>
    <path class="drift" d="M484 56C292 150 280 374 502 516C516 448 598 318 568 184C546 102 488 72 484 56Z" fill="#b8f7ff" fill-opacity="0.26" stroke="#ff2bd6" stroke-opacity="0.26" stroke-width="3"/>
    <path class="drift" d="M516 56C292 150 280 374 534 516C516 448 598 318 568 184C546 102 488 72 516 56Z" fill="#7a5cff" fill-opacity="0.21500000000000002" stroke="#ff2bd6" stroke-opacity="0.21500000000000002" stroke-width="3"/>
    <path class="pulse" d="M454 48C306 154 294 384 454 526C548 450 638 320 606 180C580 94 526 62 454 48Z" fill="#060914" fill-opacity=".82" stroke="#b8f7ff" stroke-width="10"/>
    <path d="M350 218C428 138 552 144 628 236C546 202 430 204 350 218Z" fill="#7a5cff" fill-opacity=".22" stroke="#7a5cff" stroke-width="7"/>
    <path class="pulse" d="M424 250L466 224L452 282ZM538 254L586 228L558 288Z" fill="#ff2bd6"/>
    <path d="M380 386C460 440 552 424 622 360" stroke="#b8f7ff" stroke-width="9" fill="none"/>
    
    
  </g>
  </g>
  <g filter="url(#glow)">
    <path d="M36 42H174L208 76H36Z" fill="#020713" fill-opacity=".82" stroke="#b8f7ff" stroke-width="2"/>
    <text x="58" y="67" fill="#ff2bd6" font-family="ui-monospace, SFMono-Regular, Menlo, Monaco, Consolas, monospace" font-size="22" font-weight="900">PHASE 2</text>
  </g>
</svg>
