<svg width="960" height="540" viewBox="0 0 960 540" fill="none" xmlns="http://www.w3.org/2000/svg" role="img" aria-labelledby="title desc">
  <title id="title">The Hallucination Titan Final Nightmare Form</title>
  <desc id="desc">Final Nightmare form: a fractured godhead broadcasting contradictory realities.</desc>
  <defs>
    <linearGradient id="bg" x1="0" y1="0" x2="960" y2="540" gradientUnits="userSpaceOnUse">
      <stop offset="0" stop-color="#050b14"/>
      <stop offset=".48" stop-color="#12051c"/>
      <stop offset="1" stop-color="#061b22"/>
    </linearGradient>
    <radialGradient id="core" cx="50%" cy="46%" r="50%">
      <stop offset="0" stop-color="#23f7dd" stop-opacity=".32"/>
      <stop offset=".45" stop-color="#ff2bd6" stop-opacity=".16"/>
      <stop offset="1" stop-color="#020713" stop-opacity="0"/>
    </radialGradient>
    <pattern id="scan" width="9" height="9" patternUnits="userSpaceOnUse">
      <path d="M0 0H9" stroke="#23f7dd" stroke-opacity=".08"/>
    </pattern>
    <filter id="glow" x="-30%" y="-30%" width="160%" height="160%">
      <feGaussianBlur stdDeviation="8" result="blur"/>
      <feMerge><feMergeNode in="blur"/><feMergeNode in="SourceGraphic"/></feMerge>
    </filter>
    <filter id="heavyGlow" x="-50%" y="-50%" width="200%" height="200%">
      <feGaussianBlur stdDeviation="16" result="blur"/>
      <feMerge><feMergeNode in="blur"/><feMergeNode in="SourceGraphic"/></feMerge>
    </filter>
    <style>
      @keyframes pulse { 0%,100% { opacity: .55; } 50% { opacity: 1; } }
      @keyframes spin { to { transform: rotate(360deg); } }
      @keyframes shake { 0%,100% { transform: translate(0,0); } 20% { transform: translate(3px,-2px); } 40% { transform: translate(-3px,2px); } 60% { transform: translate(2px,3px); } 80% { transform: translate(-2px,-3px); } }
      @keyframes drift { 0%,100% { transform: translateX(0); } 50% { transform: translateX(16px); } }
      @keyframes sweep { 0% { transform: translateX(-960px); } 100% { transform: translateX(960px); } }
      @keyframes flow { to { stroke-dashoffset: -220; } }
      .pulse { animation: pulse 1.4s ease-in-out infinite; }
      .spin { transform-origin: 480px 270px; animation: spin 6s linear infinite; }
      .shake { animation: shake 1.08s steps(2,end) infinite; }
      .drift { animation: drift 3.6000000000000005s ease-in-out infinite; }
      .sweep { animation: sweep 4.4s linear infinite; }
      .flow { animation: flow 3.2s linear infinite; }
    </style>
  </defs>
  <rect width="960" height="540" fill="url(#bg)"/>
  <rect width="960" height="540" fill="url(#core)"/>
  <rect width="960" height="540" fill="url(#scan)"/>
  <rect class="sweep" x="0" y="0" width="264" height="540" fill="#23f7dd" fill-opacity=".045"/>
  <path d="M0 108H960M0 432H960M110 0V540M850 0V540" stroke="#23f7dd" stroke-opacity=".08"/>
  <path d="M22 24H202M758 24H938M22 516H202M758 516H938" stroke="#ff2bd6" stroke-opacity=".72" stroke-width="4"/>
  <path class="spin" d="M84 270C204 32 756 32 876 270C756 508 204 508 84 270Z" stroke="#ff2bd6" stroke-opacity=".18" stroke-width="7" stroke-dasharray="26 18" fill="none"/>
  <g filter="url(#heavyGlow)">
    <g>
    <path d="M480 38C310 112 224 306 284 476C408 544 572 544 688 472C750 298 674 110 480 38Z" fill="#07101b" stroke="#23f7dd" stroke-width="14"/>
    <path d="M310 288L92 150M650 288L872 150M376 438L278 548M590 438L698 548" stroke="#ff2bd6" stroke-width="32" stroke-linecap="round"/>
    <path class="pulse" d="M564 222C592 140 682 138 712 218C678 302 598 302 564 222Z" fill="#07101b" stroke="#23f7dd" stroke-width="6"/>
    <path d="M602 206L630 186L620 224M666 206L694 186L684 224" stroke="#ffe95e" stroke-width="6" fill="none"/>
    <path class="pulse" d="M456.20665112249185 299.9866343362026C484.20665112249185 217.9866343362026 574.2066511224918 215.9866343362026 604.2066511224918 295.9866343362026C570.2066511224918 379.9866343362026 490.20665112249185 379.9866343362026 456.20665112249185 299.9866343362026Z" fill="#07101b" stroke="#ff2bd6" stroke-width="6"/>
    <path d="M494.20665112249185 283.9866343362026L522.2066511224918 263.9866343362026L512.2066511224918 301.9866343362026M558.2066511224918 283.9866343362026L586.2066511224918 263.9866343362026L576.2066511224918 301.9866343362026" stroke="#ffe95e" stroke-width="6" fill="none"/>
    <path class="pulse" d="M281.7933488775082 270.1983906879828C309.7933488775082 188.1983906879828 399.7933488775082 186.1983906879828 429.7933488775082 266.1983906879828C395.7933488775082 350.1983906879828 315.7933488775082 350.1983906879828 281.7933488775082 270.1983906879828Z" fill="#07101b" stroke="#23f7dd" stroke-width="6"/>
    <path d="M319.7933488775082 254.1983906879828L347.7933488775082 234.1983906879828L337.7933488775082 272.1983906879828M383.7933488775082 254.1983906879828L411.7933488775082 234.1983906879828L401.7933488775082 272.1983906879828" stroke="#ffe95e" stroke-width="6" fill="none"/>
    <path class="pulse" d="M281.7933488775082 173.8016093120172C309.7933488775082 91.8016093120172 399.7933488775082 89.8016093120172 429.7933488775082 169.8016093120172C395.7933488775082 253.8016093120172 315.7933488775082 253.8016093120172 281.7933488775082 173.8016093120172Z" fill="#07101b" stroke="#ff2bd6" stroke-width="6"/>
    <path d="M319.7933488775082 157.8016093120172L347.7933488775082 137.8016093120172L337.7933488775082 175.8016093120172M383.7933488775082 157.8016093120172L411.7933488775082 137.8016093120172L401.7933488775082 175.8016093120172" stroke="#ffe95e" stroke-width="6" fill="none"/>
    <path class="pulse" d="M456.20665112249173 144.0133656637974C484.20665112249173 62.0133656637974 574.2066511224917 60.0133656637974 604.2066511224917 140.0133656637974C570.2066511224917 224.0133656637974 490.20665112249173 224.0133656637974 456.20665112249173 144.0133656637974Z" fill="#07101b" stroke="#23f7dd" stroke-width="6"/>
    <path d="M494.20665112249173 128.0133656637974L522.2066511224917 108.0133656637974L512.2066511224917 146.0133656637974M558.2066511224917 128.0133656637974L586.2066511224917 108.0133656637974L576.2066511224917 146.0133656637974" stroke="#ffe95e" stroke-width="6" fill="none"/>
    <path class="spin" d="M188 314C300 78 660 76 774 314C660 542 300 546 188 314Z" stroke="#ff2bd6" stroke-width="10" fill="none" stroke-dasharray="22 18"/>
    <path class="flow" d="M116 118L850 498M884 116L90 500" stroke="#ffe95e" stroke-opacity=".78" stroke-width="8" stroke-dasharray="14 20"/>
    <path class="shake" d="M84 52C292 12 676 12 878 56C794 178 792 348 910 520C662 450 312 456 56 522C176 346 176 176 84 52Z" stroke="#ff2bd6" stroke-width="8" fill="#ff2bd6" fill-opacity=".10"/>
  </g>
  </g>
  <g filter="url(#glow)">
    <path d="M36 42H174L208 76H36Z" fill="#020713" fill-opacity=".82" stroke="#23f7dd" stroke-width="2"/>
    <text x="58" y="67" fill="#ffe95e" font-family="ui-monospace, SFMono-Regular, Menlo, Monaco, Consolas, monospace" font-size="22" font-weight="900">PHASE 4</text>
  </g>
</svg>
