<svg width="960" height="540" viewBox="0 0 960 540" fill="none" xmlns="http://www.w3.org/2000/svg" role="img" aria-labelledby="title desc">
  <title id="title">The Hallucination Titan Corrupted Form</title>
  <desc id="desc">Corrupted form: error sigils tear through its body as hallucinated limbs emerge.</desc>
  <defs>
    <linearGradient id="bg" x1="0" y1="0" x2="960" y2="540" gradientUnits="userSpaceOnUse">
      <stop offset="0" stop-color="#050b14"/>
      <stop offset=".48" stop-color="#12051c"/>
      <stop offset="1" stop-color="#061b22"/>
    </linearGradient>
    <radialGradient id="core" cx="50%" cy="46%" r="50%">
      <stop offset="0" stop-color="#23f7dd" stop-opacity=".32"/>
      <stop offset=".45" stop-color="#ff2bd6" stop-opacity=".16"/>
      <stop offset="1" stop-color="#020713" stop-opacity="0"/>
    </radialGradient>
    <pattern id="scan" width="9" height="9" patternUnits="userSpaceOnUse">
      <path d="M0 0H9" stroke="#23f7dd" stroke-opacity=".08"/>
    </pattern>
    <filter id="glow" x="-30%" y="-30%" width="160%" height="160%">
      <feGaussianBlur stdDeviation="8" result="blur"/>
      <feMerge><feMergeNode in="blur"/><feMergeNode in="SourceGraphic"/></feMerge>
    </filter>
    <filter id="heavyGlow" x="-50%" y="-50%" width="200%" height="200%">
      <feGaussianBlur stdDeviation="16" result="blur"/>
      <feMerge><feMergeNode in="blur"/><feMergeNode in="SourceGraphic"/></feMerge>
    </filter>
    <style>
      @keyframes pulse { 0%,100% { opacity: .55; } 50% { opacity: 1; } }
      @keyframes spin { to { transform: rotate(360deg); } }
      @keyframes shake { 0%,100% { transform: translate(0,0); } 20% { transform: translate(3px,-2px); } 40% { transform: translate(-3px,2px); } 60% { transform: translate(2px,3px); } 80% { transform: translate(-2px,-3px); } }
      @keyframes drift { 0%,100% { transform: translateX(0); } 50% { transform: translateX(16px); } }
      @keyframes sweep { 0% { transform: translateX(-960px); } 100% { transform: translateX(960px); } }
      @keyframes flow { to { stroke-dashoffset: -220; } }
      .pulse { animation: pulse 1.65s ease-in-out infinite; }
      .spin { transform-origin: 480px 270px; animation: spin 8s linear infinite; }
      .shake { animation: shake 1.36s steps(2,end) infinite; }
      .drift { animation: drift 4.050000000000001s ease-in-out infinite; }
      .sweep { animation: sweep 4.8s linear infinite; }
      .flow { animation: flow 3.7s linear infinite; }
    </style>
  </defs>
  <rect width="960" height="540" fill="url(#bg)"/>
  <rect width="960" height="540" fill="url(#core)"/>
  <rect width="960" height="540" fill="url(#scan)"/>
  <rect class="sweep" x="0" y="0" width="228" height="540" fill="#23f7dd" fill-opacity=".045"/>
  <path d="M0 108H960M0 432H960M110 0V540M850 0V540" stroke="#23f7dd" stroke-opacity=".08"/>
  <path d="M22 24H202M758 24H938M22 516H202M758 516H938" stroke="#ff2bd6" stroke-opacity=".72" stroke-width="4"/>
  <path class="spin" d="M84 270C204 32 756 32 876 270C756 508 204 508 84 270Z" stroke="#ff2bd6" stroke-opacity=".18" stroke-width="6" stroke-dasharray="26 18" fill="none"/>
  <g filter="url(#heavyGlow)">
    <g>
    <path d="M480 38C310 112 224 306 284 476C408 544 572 544 688 472C750 298 674 110 480 38Z" fill="#07101b" stroke="#23f7dd" stroke-width="13"/>
    <path d="M310 288L92 150M650 288L872 150M376 438L278 502M590 438L698 502" stroke="#ff2bd6" stroke-width="28" stroke-linecap="round"/>
    <path class="pulse" d="M564 222C592 140 682 138 712 218C678 302 598 302 564 222Z" fill="#07101b" stroke="#23f7dd" stroke-width="6"/>
    <path d="M602 206L630 186L620 224M666 206L694 186L684 224" stroke="#ffe95e" stroke-width="6" fill="none"/>
    <path class="pulse" d="M408 304C436 222 526 220 556 300C522 384 442 384 408 304Z" fill="#07101b" stroke="#ff2bd6" stroke-width="6"/>
    <path d="M446 288L474 268L464 306M510 288L538 268L528 306" stroke="#ffe95e" stroke-width="6" fill="none"/>
    <path class="pulse" d="M252 222C280 140 370 138 400 218C366 302 286 302 252 222Z" fill="#07101b" stroke="#23f7dd" stroke-width="6"/>
    <path d="M290 206L318 186L308 224M354 206L382 186L372 224" stroke="#ffe95e" stroke-width="6" fill="none"/>
    <path class="pulse" d="M407.99999999999994 140C435.99999999999994 58 526 56 556 136C522 220 441.99999999999994 220 407.99999999999994 140Z" fill="#07101b" stroke="#ff2bd6" stroke-width="6"/>
    <path d="M445.99999999999994 124L473.99999999999994 104L463.99999999999994 142M509.99999999999994 124L538 104L528 142" stroke="#ffe95e" stroke-width="6" fill="none"/>
    <path class="spin" d="M188 314C300 78 660 76 774 314C660 542 300 546 188 314Z" stroke="#ff2bd6" stroke-width="9" fill="none" stroke-dasharray="22 18"/>
    <path class="flow" d="M116 118L850 498M884 116L90 500" stroke="#ffe95e" stroke-opacity=".78" stroke-width="8" stroke-dasharray="14 20"/>
    
  </g>
  </g>
  <g filter="url(#glow)">
    <path d="M36 42H174L208 76H36Z" fill="#020713" fill-opacity=".82" stroke="#23f7dd" stroke-width="2"/>
    <text x="58" y="67" fill="#ffe95e" font-family="ui-monospace, SFMono-Regular, Menlo, Monaco, Consolas, monospace" font-size="22" font-weight="900">PHASE 3</text>
  </g>
</svg>
