<svg width="960" height="540" viewBox="0 0 960 540" fill="none" xmlns="http://www.w3.org/2000/svg" role="img" aria-labelledby="title desc">
  <title id="title">The Hallucination Titan 100+ Faces</title>
  <desc id="desc">Final Nightmare form: a fractured godhead broadcasting contradictory realities.</desc>
  <defs>
    <linearGradient id="bg" x1="0" y1="0" x2="960" y2="540" gradientUnits="userSpaceOnUse">
      <stop offset="0" stop-color="#050b14"/>
      <stop offset=".48" stop-color="#12051c"/>
      <stop offset="1" stop-color="#061b22"/>
    </linearGradient>
    <radialGradient id="core" cx="50%" cy="46%" r="50%">
      <stop offset="0" stop-color="#23f7dd" stop-opacity=".32"/>
      <stop offset=".45" stop-color="#ff2bd6" stop-opacity=".16"/>
      <stop offset="1" stop-color="#020713" stop-opacity="0"/>
    </radialGradient>
    <pattern id="scan" width="9" height="9" patternUnits="userSpaceOnUse">
      <path d="M0 0H9" stroke="#23f7dd" stroke-opacity=".08"/>
    </pattern>
    <filter id="phaseImage">
      <feColorMatrix type="saturate" values="1.88"/>
      <feComponentTransfer>
        <feFuncR type="linear" slope="1.24"/>
        <feFuncG type="linear" slope="1.08"/>
        <feFuncB type="linear" slope="1.16"/>
      </feComponentTransfer>
    </filter>
    <filter id="glow" x="-30%" y="-30%" width="160%" height="160%">
      <feGaussianBlur stdDeviation="8" result="blur"/>
      <feMerge><feMergeNode in="blur"/><feMergeNode in="SourceGraphic"/></feMerge>
    </filter>
    <filter id="heavyGlow" x="-50%" y="-50%" width="200%" height="200%">
      <feGaussianBlur stdDeviation="16" result="blur"/>
      <feMerge><feMergeNode in="blur"/><feMergeNode in="SourceGraphic"/></feMerge>
    </filter>
    <style>
      @keyframes pulseGlow { 0%,100% { opacity: .46; } 50% { opacity: 1; } }
      @keyframes energyMove { to { stroke-dashoffset: -260; transform: translateX(34px); } }
      @keyframes scanMove { 0% { transform: translateY(-540px); } 100% { transform: translateY(540px); } }
      @keyframes reactorFlicker { 0%,100% { opacity: .34; transform: scale(.94); } 40% { opacity: .92; transform: scale(1.08); } 70% { opacity: .58; transform: scale(1.02); } }
      @keyframes corruptionPulse { 0%,100% { opacity: .22; } 50% { opacity: .78; } }
      @keyframes eyeGlowPulse { 0%,100% { opacity: .56; } 50% { opacity: 1; } }
      @keyframes threatPulse { 0%,100% { opacity: .52; } 50% { opacity: 1; } }
      @keyframes spin { to { transform: rotate(360deg); } }
      @keyframes sweep { 0% { transform: translateX(-960px); } 100% { transform: translateX(960px); } }
      .pulsing-glow { animation: pulseGlow 1.52s ease-in-out infinite; }
      .energy-movement { animation: energyMove 3.4800000000000004s linear infinite; }
      .scanline-movement { animation: scanMove 4.4s linear infinite; }
      .reactor-flicker { transform-box: fill-box; transform-origin: center; animation: reactorFlicker 1.08s steps(3,end) infinite; }
      .corruption-pulse { animation: corruptionPulse 1.92s ease-in-out infinite; }
      .eye-glow-pulse { animation: eyeGlowPulse 1.2200000000000002s ease-in-out infinite; }
      .threat-indicator-pulse { animation: threatPulse 1.18s ease-in-out infinite; }
      .spin { transform-origin: 480px 270px; animation: spin 6s linear infinite; }
      .sweep { animation: sweep 4.4s linear infinite; }
    </style>
  </defs>
  <rect width="960" height="540" fill="url(#bg)"/>
  <image href="../master_boss_art/hallucination_titan_master.png" x="-50" y="-28" width="1061" height="597" preserveAspectRatio="xMidYMid slice" filter="url(#phaseImage)"/>
  <rect width="960" height="540" fill="url(#core)" opacity="0.5800000000000001"/>
  <rect class="corruption-pulse" width="960" height="540" fill="#ff2bd6" fill-opacity=".12"/>
  <rect width="960" height="540" fill="url(#scan)"/>
  <rect class="scanline-movement" x="0" y="-540" width="960" height="86" fill="#23f7dd" fill-opacity=".10"/>
  <rect class="sweep" x="0" y="0" width="304" height="540" fill="#23f7dd" fill-opacity=".045"/>
  <path class="spin" d="M84 270C204 32 756 32 876 270C756 508 204 508 84 270Z" stroke="#ff2bd6" stroke-opacity=".16" stroke-width="7" stroke-dasharray="26 18" fill="none"/>
  <g filter="url(#heavyGlow)">
    <path class="energy-movement" d="M-40 80C160 10 330 164 520 80C710 -4 850 148 1000 52" stroke="#ffe95e" stroke-opacity=".42" stroke-width="3" stroke-linecap="round" stroke-dasharray="30 24" fill="none"/>
    <path class="energy-movement" d="M-40 156C160 86 330 240 520 156C710 72 850 224 1000 128" stroke="#ffe95e" stroke-opacity=".42" stroke-width="4" stroke-linecap="round" stroke-dasharray="30 24" fill="none"/>
    <path class="energy-movement" d="M-40 232C160 162 330 316 520 232C710 148 850 300 1000 204" stroke="#ffe95e" stroke-opacity=".42" stroke-width="5" stroke-linecap="round" stroke-dasharray="30 24" fill="none"/>
    <path class="energy-movement" d="M-40 308C160 238 330 392 520 308C710 224 850 376 1000 280" stroke="#ffe95e" stroke-opacity=".42" stroke-width="6" stroke-linecap="round" stroke-dasharray="30 24" fill="none"/>
    <path class="energy-movement" d="M-40 384C160 314 330 468 520 384C710 300 850 452 1000 356" stroke="#ffe95e" stroke-opacity=".42" stroke-width="3" stroke-linecap="round" stroke-dasharray="30 24" fill="none"/>
    <path class="energy-movement" d="M-40 460C160 390 330 544 520 460C710 376 850 528 1000 432" stroke="#ffe95e" stroke-opacity=".42" stroke-width="4" stroke-linecap="round" stroke-dasharray="30 24" fill="none"/>
    <path class="corruption-pulse" d="M80 70L104 104L88 142L126 188" stroke="#ff2bd6" stroke-opacity=".42" stroke-width="2" fill="none"/>
    <path class="corruption-pulse" d="M217 153L241 187L225 225L263 271" stroke="#ff2bd6" stroke-opacity=".42" stroke-width="3" fill="none"/>
    <path class="corruption-pulse" d="M354 236L378 270L362 308L400 354" stroke="#ff2bd6" stroke-opacity=".42" stroke-width="4" fill="none"/>
    <path class="corruption-pulse" d="M491 319L515 353L499 391L537 437" stroke="#ff2bd6" stroke-opacity=".42" stroke-width="2" fill="none"/>
    <path class="corruption-pulse" d="M628 402L652 436L636 474L674 520" stroke="#ff2bd6" stroke-opacity=".42" stroke-width="3" fill="none"/>
    <path class="corruption-pulse" d="M765 105L789 139L773 177L811 223" stroke="#ff2bd6" stroke-opacity=".42" stroke-width="4" fill="none"/>
    <path class="corruption-pulse" d="M112 188L136 222L120 260L158 306" stroke="#ff2bd6" stroke-opacity=".42" stroke-width="2" fill="none"/>
    <path class="corruption-pulse" d="M249 271L273 305L257 343L295 389" stroke="#ff2bd6" stroke-opacity=".42" stroke-width="3" fill="none"/>
    <path class="corruption-pulse" d="M386 354L410 388L394 426L432 472" stroke="#ff2bd6" stroke-opacity=".42" stroke-width="4" fill="none"/>
    <path class="corruption-pulse" d="M523 437L547 471L531 509L569 555" stroke="#ff2bd6" stroke-opacity=".42" stroke-width="2" fill="none"/>
    <path class="corruption-pulse" d="M660 140L684 174L668 212L706 258" stroke="#ff2bd6" stroke-opacity=".42" stroke-width="3" fill="none"/>
    <path class="corruption-pulse" d="M797 223L821 257L805 295L843 341" stroke="#ff2bd6" stroke-opacity=".42" stroke-width="4" fill="none"/>
    <path class="corruption-pulse" d="M144 306L168 340L152 378L190 424" stroke="#ff2bd6" stroke-opacity=".42" stroke-width="2" fill="none"/>
    <path class="corruption-pulse" d="M281 389L305 423L289 461L327 507" stroke="#ff2bd6" stroke-opacity=".42" stroke-width="3" fill="none"/>
    <path class="corruption-pulse" d="M418 92L442 126L426 164L464 210" stroke="#ff2bd6" stroke-opacity=".42" stroke-width="4" fill="none"/>
    <path class="corruption-pulse" d="M555 175L579 209L563 247L601 293" stroke="#ff2bd6" stroke-opacity=".42" stroke-width="2" fill="none"/>
    <circle class="pulsing-glow" cx="482" cy="292" r="194" fill="#ffe95e" fill-opacity=".12" filter="url(#glow)"/>
    <circle class="eye-glow-pulse" cx="438" cy="226" r="11" fill="#ffe95e" fill-opacity=".86" filter="url(#glow)"/>
    <circle class="eye-glow-pulse" cx="522" cy="226" r="11" fill="#ffe95e" fill-opacity=".86" filter="url(#glow)"/>
    <circle class="reactor-flicker" cx="482" cy="292" r="90" fill="#23f7dd" fill-opacity="0.32" filter="url(#glow)"/>
    <circle class="corruption-pulse" cx="482" cy="292" r="164" stroke="#ff2bd6" stroke-opacity="0.60" stroke-width="10" fill="none"/>
    <path class="threat-indicator-pulse" d="M36 42H214L250 78H36Z" fill="#020713" fill-opacity=".78" stroke="#23f7dd" stroke-width="2"/>
    <g class="eye-glow-pulse" opacity=".54">
      <circle cx="110" cy="82" r="6" fill="#23f7dd" fill-opacity=".20" stroke="#ffe95e" stroke-width="2"/>
      <circle cx="107" cy="81" r="2" fill="#ff2bd6"/>
      <circle cx="113" cy="81" r="2" fill="#ff2bd6"/>
    </g>
    <g class="eye-glow-pulse" opacity=".54">
      <circle cx="162.85714285714286" cy="82" r="7" fill="#23f7dd" fill-opacity=".20" stroke="#ffe95e" stroke-width="2"/>
      <circle cx="159.35714285714286" cy="81" r="2" fill="#ff2bd6"/>
      <circle cx="166.35714285714286" cy="81" r="2" fill="#ff2bd6"/>
    </g>
    <g class="eye-glow-pulse" opacity=".54">
      <circle cx="215.71428571428572" cy="82" r="8" fill="#23f7dd" fill-opacity=".20" stroke="#ffe95e" stroke-width="2"/>
      <circle cx="211.71428571428572" cy="81" r="2" fill="#ff2bd6"/>
      <circle cx="219.71428571428572" cy="81" r="2" fill="#ff2bd6"/>
    </g>
    <g class="eye-glow-pulse" opacity=".54">
      <circle cx="268.57142857142856" cy="82" r="6" fill="#23f7dd" fill-opacity=".20" stroke="#ffe95e" stroke-width="2"/>
      <circle cx="265.57142857142856" cy="81" r="2" fill="#ff2bd6"/>
      <circle cx="271.57142857142856" cy="81" r="2" fill="#ff2bd6"/>
    </g>
    <g class="eye-glow-pulse" opacity=".54">
      <circle cx="321.42857142857144" cy="82" r="7" fill="#23f7dd" fill-opacity=".20" stroke="#ffe95e" stroke-width="2"/>
      <circle cx="317.92857142857144" cy="81" r="2" fill="#ff2bd6"/>
      <circle cx="324.92857142857144" cy="81" r="2" fill="#ff2bd6"/>
    </g>
    <g class="eye-glow-pulse" opacity=".54">
      <circle cx="374.2857142857143" cy="82" r="8" fill="#23f7dd" fill-opacity=".20" stroke="#ffe95e" stroke-width="2"/>
      <circle cx="370.2857142857143" cy="81" r="2" fill="#ff2bd6"/>
      <circle cx="378.2857142857143" cy="81" r="2" fill="#ff2bd6"/>
    </g>
    <g class="eye-glow-pulse" opacity=".54">
      <circle cx="427.1428571428571" cy="82" r="6" fill="#23f7dd" fill-opacity=".20" stroke="#ffe95e" stroke-width="2"/>
      <circle cx="424.1428571428571" cy="81" r="2" fill="#ff2bd6"/>
      <circle cx="430.1428571428571" cy="81" r="2" fill="#ff2bd6"/>
    </g>
    <g class="eye-glow-pulse" opacity=".54">
      <circle cx="480" cy="82" r="7" fill="#23f7dd" fill-opacity=".20" stroke="#ffe95e" stroke-width="2"/>
      <circle cx="476.5" cy="81" r="2" fill="#ff2bd6"/>
      <circle cx="483.5" cy="81" r="2" fill="#ff2bd6"/>
    </g>
    <g class="eye-glow-pulse" opacity=".54">
      <circle cx="532.8571428571429" cy="82" r="8" fill="#23f7dd" fill-opacity=".20" stroke="#ffe95e" stroke-width="2"/>
      <circle cx="528.8571428571429" cy="81" r="2" fill="#ff2bd6"/>
      <circle cx="536.8571428571429" cy="81" r="2" fill="#ff2bd6"/>
    </g>
    <g class="eye-glow-pulse" opacity=".54">
      <circle cx="585.7142857142857" cy="82" r="6" fill="#23f7dd" fill-opacity=".20" stroke="#ffe95e" stroke-width="2"/>
      <circle cx="582.7142857142857" cy="81" r="2" fill="#ff2bd6"/>
      <circle cx="588.7142857142857" cy="81" r="2" fill="#ff2bd6"/>
    </g>
    <g class="eye-glow-pulse" opacity=".54">
      <circle cx="638.5714285714286" cy="82" r="7" fill="#23f7dd" fill-opacity=".20" stroke="#ffe95e" stroke-width="2"/>
      <circle cx="635.0714285714286" cy="81" r="2" fill="#ff2bd6"/>
      <circle cx="642.0714285714286" cy="81" r="2" fill="#ff2bd6"/>
    </g>
    <g class="eye-glow-pulse" opacity=".54">
      <circle cx="691.4285714285714" cy="82" r="8" fill="#23f7dd" fill-opacity=".20" stroke="#ffe95e" stroke-width="2"/>
      <circle cx="687.4285714285714" cy="81" r="2" fill="#ff2bd6"/>
      <circle cx="695.4285714285714" cy="81" r="2" fill="#ff2bd6"/>
    </g>
    <g class="eye-glow-pulse" opacity=".54">
      <circle cx="744.2857142857142" cy="82" r="6" fill="#23f7dd" fill-opacity=".20" stroke="#ffe95e" stroke-width="2"/>
      <circle cx="741.2857142857142" cy="81" r="2" fill="#ff2bd6"/>
      <circle cx="747.2857142857142" cy="81" r="2" fill="#ff2bd6"/>
    </g>
    <g class="eye-glow-pulse" opacity=".54">
      <circle cx="797.1428571428571" cy="82" r="7" fill="#23f7dd" fill-opacity=".20" stroke="#ffe95e" stroke-width="2"/>
      <circle cx="793.6428571428571" cy="81" r="2" fill="#ff2bd6"/>
      <circle cx="800.6428571428571" cy="81" r="2" fill="#ff2bd6"/>
    </g>
    <g class="eye-glow-pulse" opacity=".54">
      <circle cx="850" cy="82" r="8" fill="#23f7dd" fill-opacity=".20" stroke="#ffe95e" stroke-width="2"/>
      <circle cx="846" cy="81" r="2" fill="#ff2bd6"/>
      <circle cx="854" cy="81" r="2" fill="#ff2bd6"/>
    </g>
    <g class="eye-glow-pulse" opacity=".54">
      <circle cx="110" cy="134.85714285714286" r="6" fill="#23f7dd" fill-opacity=".20" stroke="#ffe95e" stroke-width="2"/>
      <circle cx="107" cy="133.85714285714286" r="2" fill="#ff2bd6"/>
      <circle cx="113" cy="133.85714285714286" r="2" fill="#ff2bd6"/>
    </g>
    <g class="eye-glow-pulse" opacity=".54">
      <circle cx="162.85714285714286" cy="134.85714285714286" r="7" fill="#23f7dd" fill-opacity=".20" stroke="#ffe95e" stroke-width="2"/>
      <circle cx="159.35714285714286" cy="133.85714285714286" r="2" fill="#ff2bd6"/>
      <circle cx="166.35714285714286" cy="133.85714285714286" r="2" fill="#ff2bd6"/>
    </g>
    <g class="eye-glow-pulse" opacity=".54">
      <circle cx="215.71428571428572" cy="134.85714285714286" r="8" fill="#23f7dd" fill-opacity=".20" stroke="#ffe95e" stroke-width="2"/>
      <circle cx="211.71428571428572" cy="133.85714285714286" r="2" fill="#ff2bd6"/>
      <circle cx="219.71428571428572" cy="133.85714285714286" r="2" fill="#ff2bd6"/>
    </g>
    <g class="eye-glow-pulse" opacity=".54">
      <circle cx="268.57142857142856" cy="134.85714285714286" r="6" fill="#23f7dd" fill-opacity=".20" stroke="#ffe95e" stroke-width="2"/>
      <circle cx="265.57142857142856" cy="133.85714285714286" r="2" fill="#ff2bd6"/>
      <circle cx="271.57142857142856" cy="133.85714285714286" r="2" fill="#ff2bd6"/>
    </g>
    <g class="eye-glow-pulse" opacity=".54">
      <circle cx="321.42857142857144" cy="134.85714285714286" r="7" fill="#23f7dd" fill-opacity=".20" stroke="#ffe95e" stroke-width="2"/>
      <circle cx="317.92857142857144" cy="133.85714285714286" r="2" fill="#ff2bd6"/>
      <circle cx="324.92857142857144" cy="133.85714285714286" r="2" fill="#ff2bd6"/>
    </g>
    <g class="eye-glow-pulse" opacity=".54">
      <circle cx="374.2857142857143" cy="134.85714285714286" r="8" fill="#23f7dd" fill-opacity=".20" stroke="#ffe95e" stroke-width="2"/>
      <circle cx="370.2857142857143" cy="133.85714285714286" r="2" fill="#ff2bd6"/>
      <circle cx="378.2857142857143" cy="133.85714285714286" r="2" fill="#ff2bd6"/>
    </g>
    <g class="eye-glow-pulse" opacity=".54">
      <circle cx="427.1428571428571" cy="134.85714285714286" r="6" fill="#23f7dd" fill-opacity=".20" stroke="#ffe95e" stroke-width="2"/>
      <circle cx="424.1428571428571" cy="133.85714285714286" r="2" fill="#ff2bd6"/>
      <circle cx="430.1428571428571" cy="133.85714285714286" r="2" fill="#ff2bd6"/>
    </g>
    <g class="eye-glow-pulse" opacity=".54">
      <circle cx="480" cy="134.85714285714286" r="7" fill="#23f7dd" fill-opacity=".20" stroke="#ffe95e" stroke-width="2"/>
      <circle cx="476.5" cy="133.85714285714286" r="2" fill="#ff2bd6"/>
      <circle cx="483.5" cy="133.85714285714286" r="2" fill="#ff2bd6"/>
    </g>
    <g class="eye-glow-pulse" opacity=".54">
      <circle cx="532.8571428571429" cy="134.85714285714286" r="8" fill="#23f7dd" fill-opacity=".20" stroke="#ffe95e" stroke-width="2"/>
      <circle cx="528.8571428571429" cy="133.85714285714286" r="2" fill="#ff2bd6"/>
      <circle cx="536.8571428571429" cy="133.85714285714286" r="2" fill="#ff2bd6"/>
    </g>
    <g class="eye-glow-pulse" opacity=".54">
      <circle cx="585.7142857142857" cy="134.85714285714286" r="6" fill="#23f7dd" fill-opacity=".20" stroke="#ffe95e" stroke-width="2"/>
      <circle cx="582.7142857142857" cy="133.85714285714286" r="2" fill="#ff2bd6"/>
      <circle cx="588.7142857142857" cy="133.85714285714286" r="2" fill="#ff2bd6"/>
    </g>
    <g class="eye-glow-pulse" opacity=".54">
      <circle cx="638.5714285714286" cy="134.85714285714286" r="7" fill="#23f7dd" fill-opacity=".20" stroke="#ffe95e" stroke-width="2"/>
      <circle cx="635.0714285714286" cy="133.85714285714286" r="2" fill="#ff2bd6"/>
      <circle cx="642.0714285714286" cy="133.85714285714286" r="2" fill="#ff2bd6"/>
    </g>
    <g class="eye-glow-pulse" opacity=".54">
      <circle cx="691.4285714285714" cy="134.85714285714286" r="8" fill="#23f7dd" fill-opacity=".20" stroke="#ffe95e" stroke-width="2"/>
      <circle cx="687.4285714285714" cy="133.85714285714286" r="2" fill="#ff2bd6"/>
      <circle cx="695.4285714285714" cy="133.85714285714286" r="2" fill="#ff2bd6"/>
    </g>
    <g class="eye-glow-pulse" opacity=".54">
      <circle cx="744.2857142857142" cy="134.85714285714286" r="6" fill="#23f7dd" fill-opacity=".20" stroke="#ffe95e" stroke-width="2"/>
      <circle cx="741.2857142857142" cy="133.85714285714286" r="2" fill="#ff2bd6"/>
      <circle cx="747.2857142857142" cy="133.85714285714286" r="2" fill="#ff2bd6"/>
    </g>
    <g class="eye-glow-pulse" opacity=".54">
      <circle cx="797.1428571428571" cy="134.85714285714286" r="7" fill="#23f7dd" fill-opacity=".20" stroke="#ffe95e" stroke-width="2"/>
      <circle cx="793.6428571428571" cy="133.85714285714286" r="2" fill="#ff2bd6"/>
      <circle cx="800.6428571428571" cy="133.85714285714286" r="2" fill="#ff2bd6"/>
    </g>
    <g class="eye-glow-pulse" opacity=".54">
      <circle cx="850" cy="134.85714285714286" r="8" fill="#23f7dd" fill-opacity=".20" stroke="#ffe95e" stroke-width="2"/>
      <circle cx="846" cy="133.85714285714286" r="2" fill="#ff2bd6"/>
      <circle cx="854" cy="133.85714285714286" r="2" fill="#ff2bd6"/>
    </g>
    <g class="eye-glow-pulse" opacity=".54">
      <circle cx="110" cy="187.71428571428572" r="6" fill="#23f7dd" fill-opacity=".20" stroke="#ffe95e" stroke-width="2"/>
      <circle cx="107" cy="186.71428571428572" r="2" fill="#ff2bd6"/>
      <circle cx="113" cy="186.71428571428572" r="2" fill="#ff2bd6"/>
    </g>
    <g class="eye-glow-pulse" opacity=".54">
      <circle cx="162.85714285714286" cy="187.71428571428572" r="7" fill="#23f7dd" fill-opacity=".20" stroke="#ffe95e" stroke-width="2"/>
      <circle cx="159.35714285714286" cy="186.71428571428572" r="2" fill="#ff2bd6"/>
      <circle cx="166.35714285714286" cy="186.71428571428572" r="2" fill="#ff2bd6"/>
    </g>
    <g class="eye-glow-pulse" opacity=".54">
      <circle cx="215.71428571428572" cy="187.71428571428572" r="8" fill="#23f7dd" fill-opacity=".20" stroke="#ffe95e" stroke-width="2"/>
      <circle cx="211.71428571428572" cy="186.71428571428572" r="2" fill="#ff2bd6"/>
      <circle cx="219.71428571428572" cy="186.71428571428572" r="2" fill="#ff2bd6"/>
    </g>
    <g class="eye-glow-pulse" opacity=".54">
      <circle cx="268.57142857142856" cy="187.71428571428572" r="6" fill="#23f7dd" fill-opacity=".20" stroke="#ffe95e" stroke-width="2"/>
      <circle cx="265.57142857142856" cy="186.71428571428572" r="2" fill="#ff2bd6"/>
      <circle cx="271.57142857142856" cy="186.71428571428572" r="2" fill="#ff2bd6"/>
    </g>
    <g class="eye-glow-pulse" opacity=".54">
      <circle cx="321.42857142857144" cy="187.71428571428572" r="7" fill="#23f7dd" fill-opacity=".20" stroke="#ffe95e" stroke-width="2"/>
      <circle cx="317.92857142857144" cy="186.71428571428572" r="2" fill="#ff2bd6"/>
      <circle cx="324.92857142857144" cy="186.71428571428572" r="2" fill="#ff2bd6"/>
    </g>
    <g class="eye-glow-pulse" opacity=".54">
      <circle cx="374.2857142857143" cy="187.71428571428572" r="8" fill="#23f7dd" fill-opacity=".20" stroke="#ffe95e" stroke-width="2"/>
      <circle cx="370.2857142857143" cy="186.71428571428572" r="2" fill="#ff2bd6"/>
      <circle cx="378.2857142857143" cy="186.71428571428572" r="2" fill="#ff2bd6"/>
    </g>
    <g class="eye-glow-pulse" opacity=".54">
      <circle cx="427.1428571428571" cy="187.71428571428572" r="6" fill="#23f7dd" fill-opacity=".20" stroke="#ffe95e" stroke-width="2"/>
      <circle cx="424.1428571428571" cy="186.71428571428572" r="2" fill="#ff2bd6"/>
      <circle cx="430.1428571428571" cy="186.71428571428572" r="2" fill="#ff2bd6"/>
    </g>
    <g class="eye-glow-pulse" opacity=".54">
      <circle cx="480" cy="187.71428571428572" r="7" fill="#23f7dd" fill-opacity=".20" stroke="#ffe95e" stroke-width="2"/>
      <circle cx="476.5" cy="186.71428571428572" r="2" fill="#ff2bd6"/>
      <circle cx="483.5" cy="186.71428571428572" r="2" fill="#ff2bd6"/>
    </g>
    <g class="eye-glow-pulse" opacity=".54">
      <circle cx="532.8571428571429" cy="187.71428571428572" r="8" fill="#23f7dd" fill-opacity=".20" stroke="#ffe95e" stroke-width="2"/>
      <circle cx="528.8571428571429" cy="186.71428571428572" r="2" fill="#ff2bd6"/>
      <circle cx="536.8571428571429" cy="186.71428571428572" r="2" fill="#ff2bd6"/>
    </g>
    <g class="eye-glow-pulse" opacity=".54">
      <circle cx="585.7142857142857" cy="187.71428571428572" r="6" fill="#23f7dd" fill-opacity=".20" stroke="#ffe95e" stroke-width="2"/>
      <circle cx="582.7142857142857" cy="186.71428571428572" r="2" fill="#ff2bd6"/>
      <circle cx="588.7142857142857" cy="186.71428571428572" r="2" fill="#ff2bd6"/>
    </g>
    <g class="eye-glow-pulse" opacity=".54">
      <circle cx="638.5714285714286" cy="187.71428571428572" r="7" fill="#23f7dd" fill-opacity=".20" stroke="#ffe95e" stroke-width="2"/>
      <circle cx="635.0714285714286" cy="186.71428571428572" r="2" fill="#ff2bd6"/>
      <circle cx="642.0714285714286" cy="186.71428571428572" r="2" fill="#ff2bd6"/>
    </g>
    <g class="eye-glow-pulse" opacity=".54">
      <circle cx="691.4285714285714" cy="187.71428571428572" r="8" fill="#23f7dd" fill-opacity=".20" stroke="#ffe95e" stroke-width="2"/>
      <circle cx="687.4285714285714" cy="186.71428571428572" r="2" fill="#ff2bd6"/>
      <circle cx="695.4285714285714" cy="186.71428571428572" r="2" fill="#ff2bd6"/>
    </g>
    <g class="eye-glow-pulse" opacity=".54">
      <circle cx="744.2857142857142" cy="187.71428571428572" r="6" fill="#23f7dd" fill-opacity=".20" stroke="#ffe95e" stroke-width="2"/>
      <circle cx="741.2857142857142" cy="186.71428571428572" r="2" fill="#ff2bd6"/>
      <circle cx="747.2857142857142" cy="186.71428571428572" r="2" fill="#ff2bd6"/>
    </g>
    <g class="eye-glow-pulse" opacity=".54">
      <circle cx="797.1428571428571" cy="187.71428571428572" r="7" fill="#23f7dd" fill-opacity=".20" stroke="#ffe95e" stroke-width="2"/>
      <circle cx="793.6428571428571" cy="186.71428571428572" r="2" fill="#ff2bd6"/>
      <circle cx="800.6428571428571" cy="186.71428571428572" r="2" fill="#ff2bd6"/>
    </g>
    <g class="eye-glow-pulse" opacity=".54">
      <circle cx="850" cy="187.71428571428572" r="8" fill="#23f7dd" fill-opacity=".20" stroke="#ffe95e" stroke-width="2"/>
      <circle cx="846" cy="186.71428571428572" r="2" fill="#ff2bd6"/>
      <circle cx="854" cy="186.71428571428572" r="2" fill="#ff2bd6"/>
    </g>
    <g class="eye-glow-pulse" opacity=".54">
      <circle cx="110" cy="240.57142857142856" r="6" fill="#23f7dd" fill-opacity=".20" stroke="#ffe95e" stroke-width="2"/>
      <circle cx="107" cy="239.57142857142856" r="2" fill="#ff2bd6"/>
      <circle cx="113" cy="239.57142857142856" r="2" fill="#ff2bd6"/>
    </g>
    <g class="eye-glow-pulse" opacity=".54">
      <circle cx="162.85714285714286" cy="240.57142857142856" r="7" fill="#23f7dd" fill-opacity=".20" stroke="#ffe95e" stroke-width="2"/>
      <circle cx="159.35714285714286" cy="239.57142857142856" r="2" fill="#ff2bd6"/>
      <circle cx="166.35714285714286" cy="239.57142857142856" r="2" fill="#ff2bd6"/>
    </g>
    <g class="eye-glow-pulse" opacity=".54">
      <circle cx="215.71428571428572" cy="240.57142857142856" r="8" fill="#23f7dd" fill-opacity=".20" stroke="#ffe95e" stroke-width="2"/>
      <circle cx="211.71428571428572" cy="239.57142857142856" r="2" fill="#ff2bd6"/>
      <circle cx="219.71428571428572" cy="239.57142857142856" r="2" fill="#ff2bd6"/>
    </g>
    <g class="eye-glow-pulse" opacity=".54">
      <circle cx="268.57142857142856" cy="240.57142857142856" r="6" fill="#23f7dd" fill-opacity=".20" stroke="#ffe95e" stroke-width="2"/>
      <circle cx="265.57142857142856" cy="239.57142857142856" r="2" fill="#ff2bd6"/>
      <circle cx="271.57142857142856" cy="239.57142857142856" r="2" fill="#ff2bd6"/>
    </g>
    <g class="eye-glow-pulse" opacity=".54">
      <circle cx="321.42857142857144" cy="240.57142857142856" r="7" fill="#23f7dd" fill-opacity=".20" stroke="#ffe95e" stroke-width="2"/>
      <circle cx="317.92857142857144" cy="239.57142857142856" r="2" fill="#ff2bd6"/>
      <circle cx="324.92857142857144" cy="239.57142857142856" r="2" fill="#ff2bd6"/>
    </g>
    <g class="eye-glow-pulse" opacity=".54">
      <circle cx="374.2857142857143" cy="240.57142857142856" r="8" fill="#23f7dd" fill-opacity=".20" stroke="#ffe95e" stroke-width="2"/>
      <circle cx="370.2857142857143" cy="239.57142857142856" r="2" fill="#ff2bd6"/>
      <circle cx="378.2857142857143" cy="239.57142857142856" r="2" fill="#ff2bd6"/>
    </g>
    <g class="eye-glow-pulse" opacity=".54">
      <circle cx="427.1428571428571" cy="240.57142857142856" r="6" fill="#23f7dd" fill-opacity=".20" stroke="#ffe95e" stroke-width="2"/>
      <circle cx="424.1428571428571" cy="239.57142857142856" r="2" fill="#ff2bd6"/>
      <circle cx="430.1428571428571" cy="239.57142857142856" r="2" fill="#ff2bd6"/>
    </g>
    <g class="eye-glow-pulse" opacity=".54">
      <circle cx="480" cy="240.57142857142856" r="7" fill="#23f7dd" fill-opacity=".20" stroke="#ffe95e" stroke-width="2"/>
      <circle cx="476.5" cy="239.57142857142856" r="2" fill="#ff2bd6"/>
      <circle cx="483.5" cy="239.57142857142856" r="2" fill="#ff2bd6"/>
    </g>
    <g class="eye-glow-pulse" opacity=".54">
      <circle cx="532.8571428571429" cy="240.57142857142856" r="8" fill="#23f7dd" fill-opacity=".20" stroke="#ffe95e" stroke-width="2"/>
      <circle cx="528.8571428571429" cy="239.57142857142856" r="2" fill="#ff2bd6"/>
      <circle cx="536.8571428571429" cy="239.57142857142856" r="2" fill="#ff2bd6"/>
    </g>
    <g class="eye-glow-pulse" opacity=".54">
      <circle cx="585.7142857142857" cy="240.57142857142856" r="6" fill="#23f7dd" fill-opacity=".20" stroke="#ffe95e" stroke-width="2"/>
      <circle cx="582.7142857142857" cy="239.57142857142856" r="2" fill="#ff2bd6"/>
      <circle cx="588.7142857142857" cy="239.57142857142856" r="2" fill="#ff2bd6"/>
    </g>
    <g class="eye-glow-pulse" opacity=".54">
      <circle cx="638.5714285714286" cy="240.57142857142856" r="7" fill="#23f7dd" fill-opacity=".20" stroke="#ffe95e" stroke-width="2"/>
      <circle cx="635.0714285714286" cy="239.57142857142856" r="2" fill="#ff2bd6"/>
      <circle cx="642.0714285714286" cy="239.57142857142856" r="2" fill="#ff2bd6"/>
    </g>
    <g class="eye-glow-pulse" opacity=".54">
      <circle cx="691.4285714285714" cy="240.57142857142856" r="8" fill="#23f7dd" fill-opacity=".20" stroke="#ffe95e" stroke-width="2"/>
      <circle cx="687.4285714285714" cy="239.57142857142856" r="2" fill="#ff2bd6"/>
      <circle cx="695.4285714285714" cy="239.57142857142856" r="2" fill="#ff2bd6"/>
    </g>
    <g class="eye-glow-pulse" opacity=".54">
      <circle cx="744.2857142857142" cy="240.57142857142856" r="6" fill="#23f7dd" fill-opacity=".20" stroke="#ffe95e" stroke-width="2"/>
      <circle cx="741.2857142857142" cy="239.57142857142856" r="2" fill="#ff2bd6"/>
      <circle cx="747.2857142857142" cy="239.57142857142856" r="2" fill="#ff2bd6"/>
    </g>
    <g class="eye-glow-pulse" opacity=".54">
      <circle cx="797.1428571428571" cy="240.57142857142856" r="7" fill="#23f7dd" fill-opacity=".20" stroke="#ffe95e" stroke-width="2"/>
      <circle cx="793.6428571428571" cy="239.57142857142856" r="2" fill="#ff2bd6"/>
      <circle cx="800.6428571428571" cy="239.57142857142856" r="2" fill="#ff2bd6"/>
    </g>
    <g class="eye-glow-pulse" opacity=".54">
      <circle cx="850" cy="240.57142857142856" r="8" fill="#23f7dd" fill-opacity=".20" stroke="#ffe95e" stroke-width="2"/>
      <circle cx="846" cy="239.57142857142856" r="2" fill="#ff2bd6"/>
      <circle cx="854" cy="239.57142857142856" r="2" fill="#ff2bd6"/>
    </g>
    <g class="eye-glow-pulse" opacity=".54">
      <circle cx="110" cy="293.42857142857144" r="6" fill="#23f7dd" fill-opacity=".20" stroke="#ffe95e" stroke-width="2"/>
      <circle cx="107" cy="292.42857142857144" r="2" fill="#ff2bd6"/>
      <circle cx="113" cy="292.42857142857144" r="2" fill="#ff2bd6"/>
    </g>
    <g class="eye-glow-pulse" opacity=".54">
      <circle cx="162.85714285714286" cy="293.42857142857144" r="7" fill="#23f7dd" fill-opacity=".20" stroke="#ffe95e" stroke-width="2"/>
      <circle cx="159.35714285714286" cy="292.42857142857144" r="2" fill="#ff2bd6"/>
      <circle cx="166.35714285714286" cy="292.42857142857144" r="2" fill="#ff2bd6"/>
    </g>
    <g class="eye-glow-pulse" opacity=".54">
      <circle cx="215.71428571428572" cy="293.42857142857144" r="8" fill="#23f7dd" fill-opacity=".20" stroke="#ffe95e" stroke-width="2"/>
      <circle cx="211.71428571428572" cy="292.42857142857144" r="2" fill="#ff2bd6"/>
      <circle cx="219.71428571428572" cy="292.42857142857144" r="2" fill="#ff2bd6"/>
    </g>
    <g class="eye-glow-pulse" opacity=".54">
      <circle cx="268.57142857142856" cy="293.42857142857144" r="6" fill="#23f7dd" fill-opacity=".20" stroke="#ffe95e" stroke-width="2"/>
      <circle cx="265.57142857142856" cy="292.42857142857144" r="2" fill="#ff2bd6"/>
      <circle cx="271.57142857142856" cy="292.42857142857144" r="2" fill="#ff2bd6"/>
    </g>
    <g class="eye-glow-pulse" opacity=".54">
      <circle cx="321.42857142857144" cy="293.42857142857144" r="7" fill="#23f7dd" fill-opacity=".20" stroke="#ffe95e" stroke-width="2"/>
      <circle cx="317.92857142857144" cy="292.42857142857144" r="2" fill="#ff2bd6"/>
      <circle cx="324.92857142857144" cy="292.42857142857144" r="2" fill="#ff2bd6"/>
    </g>
    <g class="eye-glow-pulse" opacity=".54">
      <circle cx="374.2857142857143" cy="293.42857142857144" r="8" fill="#23f7dd" fill-opacity=".20" stroke="#ffe95e" stroke-width="2"/>
      <circle cx="370.2857142857143" cy="292.42857142857144" r="2" fill="#ff2bd6"/>
      <circle cx="378.2857142857143" cy="292.42857142857144" r="2" fill="#ff2bd6"/>
    </g>
    <g class="eye-glow-pulse" opacity=".54">
      <circle cx="427.1428571428571" cy="293.42857142857144" r="6" fill="#23f7dd" fill-opacity=".20" stroke="#ffe95e" stroke-width="2"/>
      <circle cx="424.1428571428571" cy="292.42857142857144" r="2" fill="#ff2bd6"/>
      <circle cx="430.1428571428571" cy="292.42857142857144" r="2" fill="#ff2bd6"/>
    </g>
    <g class="eye-glow-pulse" opacity=".54">
      <circle cx="480" cy="293.42857142857144" r="7" fill="#23f7dd" fill-opacity=".20" stroke="#ffe95e" stroke-width="2"/>
      <circle cx="476.5" cy="292.42857142857144" r="2" fill="#ff2bd6"/>
      <circle cx="483.5" cy="292.42857142857144" r="2" fill="#ff2bd6"/>
    </g>
    <g class="eye-glow-pulse" opacity=".54">
      <circle cx="532.8571428571429" cy="293.42857142857144" r="8" fill="#23f7dd" fill-opacity=".20" stroke="#ffe95e" stroke-width="2"/>
      <circle cx="528.8571428571429" cy="292.42857142857144" r="2" fill="#ff2bd6"/>
      <circle cx="536.8571428571429" cy="292.42857142857144" r="2" fill="#ff2bd6"/>
    </g>
    <g class="eye-glow-pulse" opacity=".54">
      <circle cx="585.7142857142857" cy="293.42857142857144" r="6" fill="#23f7dd" fill-opacity=".20" stroke="#ffe95e" stroke-width="2"/>
      <circle cx="582.7142857142857" cy="292.42857142857144" r="2" fill="#ff2bd6"/>
      <circle cx="588.7142857142857" cy="292.42857142857144" r="2" fill="#ff2bd6"/>
    </g>
    <g class="eye-glow-pulse" opacity=".54">
      <circle cx="638.5714285714286" cy="293.42857142857144" r="7" fill="#23f7dd" fill-opacity=".20" stroke="#ffe95e" stroke-width="2"/>
      <circle cx="635.0714285714286" cy="292.42857142857144" r="2" fill="#ff2bd6"/>
      <circle cx="642.0714285714286" cy="292.42857142857144" r="2" fill="#ff2bd6"/>
    </g>
    <g class="eye-glow-pulse" opacity=".54">
      <circle cx="691.4285714285714" cy="293.42857142857144" r="8" fill="#23f7dd" fill-opacity=".20" stroke="#ffe95e" stroke-width="2"/>
      <circle cx="687.4285714285714" cy="292.42857142857144" r="2" fill="#ff2bd6"/>
      <circle cx="695.4285714285714" cy="292.42857142857144" r="2" fill="#ff2bd6"/>
    </g>
    <g class="eye-glow-pulse" opacity=".54">
      <circle cx="744.2857142857142" cy="293.42857142857144" r="6" fill="#23f7dd" fill-opacity=".20" stroke="#ffe95e" stroke-width="2"/>
      <circle cx="741.2857142857142" cy="292.42857142857144" r="2" fill="#ff2bd6"/>
      <circle cx="747.2857142857142" cy="292.42857142857144" r="2" fill="#ff2bd6"/>
    </g>
    <g class="eye-glow-pulse" opacity=".54">
      <circle cx="797.1428571428571" cy="293.42857142857144" r="7" fill="#23f7dd" fill-opacity=".20" stroke="#ffe95e" stroke-width="2"/>
      <circle cx="793.6428571428571" cy="292.42857142857144" r="2" fill="#ff2bd6"/>
      <circle cx="800.6428571428571" cy="292.42857142857144" r="2" fill="#ff2bd6"/>
    </g>
    <g class="eye-glow-pulse" opacity=".54">
      <circle cx="850" cy="293.42857142857144" r="8" fill="#23f7dd" fill-opacity=".20" stroke="#ffe95e" stroke-width="2"/>
      <circle cx="846" cy="292.42857142857144" r="2" fill="#ff2bd6"/>
      <circle cx="854" cy="292.42857142857144" r="2" fill="#ff2bd6"/>
    </g>
    <g class="eye-glow-pulse" opacity=".54">
      <circle cx="110" cy="346.2857142857143" r="6" fill="#23f7dd" fill-opacity=".20" stroke="#ffe95e" stroke-width="2"/>
      <circle cx="107" cy="345.2857142857143" r="2" fill="#ff2bd6"/>
      <circle cx="113" cy="345.2857142857143" r="2" fill="#ff2bd6"/>
    </g>
    <g class="eye-glow-pulse" opacity=".54">
      <circle cx="162.85714285714286" cy="346.2857142857143" r="7" fill="#23f7dd" fill-opacity=".20" stroke="#ffe95e" stroke-width="2"/>
      <circle cx="159.35714285714286" cy="345.2857142857143" r="2" fill="#ff2bd6"/>
      <circle cx="166.35714285714286" cy="345.2857142857143" r="2" fill="#ff2bd6"/>
    </g>
    <g class="eye-glow-pulse" opacity=".54">
      <circle cx="215.71428571428572" cy="346.2857142857143" r="8" fill="#23f7dd" fill-opacity=".20" stroke="#ffe95e" stroke-width="2"/>
      <circle cx="211.71428571428572" cy="345.2857142857143" r="2" fill="#ff2bd6"/>
      <circle cx="219.71428571428572" cy="345.2857142857143" r="2" fill="#ff2bd6"/>
    </g>
    <g class="eye-glow-pulse" opacity=".54">
      <circle cx="268.57142857142856" cy="346.2857142857143" r="6" fill="#23f7dd" fill-opacity=".20" stroke="#ffe95e" stroke-width="2"/>
      <circle cx="265.57142857142856" cy="345.2857142857143" r="2" fill="#ff2bd6"/>
      <circle cx="271.57142857142856" cy="345.2857142857143" r="2" fill="#ff2bd6"/>
    </g>
    <g class="eye-glow-pulse" opacity=".54">
      <circle cx="321.42857142857144" cy="346.2857142857143" r="7" fill="#23f7dd" fill-opacity=".20" stroke="#ffe95e" stroke-width="2"/>
      <circle cx="317.92857142857144" cy="345.2857142857143" r="2" fill="#ff2bd6"/>
      <circle cx="324.92857142857144" cy="345.2857142857143" r="2" fill="#ff2bd6"/>
    </g>
    <g class="eye-glow-pulse" opacity=".54">
      <circle cx="374.2857142857143" cy="346.2857142857143" r="8" fill="#23f7dd" fill-opacity=".20" stroke="#ffe95e" stroke-width="2"/>
      <circle cx="370.2857142857143" cy="345.2857142857143" r="2" fill="#ff2bd6"/>
      <circle cx="378.2857142857143" cy="345.2857142857143" r="2" fill="#ff2bd6"/>
    </g>
    <g class="eye-glow-pulse" opacity=".54">
      <circle cx="427.1428571428571" cy="346.2857142857143" r="6" fill="#23f7dd" fill-opacity=".20" stroke="#ffe95e" stroke-width="2"/>
      <circle cx="424.1428571428571" cy="345.2857142857143" r="2" fill="#ff2bd6"/>
      <circle cx="430.1428571428571" cy="345.2857142857143" r="2" fill="#ff2bd6"/>
    </g>
    <g class="eye-glow-pulse" opacity=".54">
      <circle cx="480" cy="346.2857142857143" r="7" fill="#23f7dd" fill-opacity=".20" stroke="#ffe95e" stroke-width="2"/>
      <circle cx="476.5" cy="345.2857142857143" r="2" fill="#ff2bd6"/>
      <circle cx="483.5" cy="345.2857142857143" r="2" fill="#ff2bd6"/>
    </g>
    <g class="eye-glow-pulse" opacity=".54">
      <circle cx="532.8571428571429" cy="346.2857142857143" r="8" fill="#23f7dd" fill-opacity=".20" stroke="#ffe95e" stroke-width="2"/>
      <circle cx="528.8571428571429" cy="345.2857142857143" r="2" fill="#ff2bd6"/>
      <circle cx="536.8571428571429" cy="345.2857142857143" r="2" fill="#ff2bd6"/>
    </g>
    <g class="eye-glow-pulse" opacity=".54">
      <circle cx="585.7142857142857" cy="346.2857142857143" r="6" fill="#23f7dd" fill-opacity=".20" stroke="#ffe95e" stroke-width="2"/>
      <circle cx="582.7142857142857" cy="345.2857142857143" r="2" fill="#ff2bd6"/>
      <circle cx="588.7142857142857" cy="345.2857142857143" r="2" fill="#ff2bd6"/>
    </g>
    <g class="eye-glow-pulse" opacity=".54">
      <circle cx="638.5714285714286" cy="346.2857142857143" r="7" fill="#23f7dd" fill-opacity=".20" stroke="#ffe95e" stroke-width="2"/>
      <circle cx="635.0714285714286" cy="345.2857142857143" r="2" fill="#ff2bd6"/>
      <circle cx="642.0714285714286" cy="345.2857142857143" r="2" fill="#ff2bd6"/>
    </g>
    <g class="eye-glow-pulse" opacity=".54">
      <circle cx="691.4285714285714" cy="346.2857142857143" r="8" fill="#23f7dd" fill-opacity=".20" stroke="#ffe95e" stroke-width="2"/>
      <circle cx="687.4285714285714" cy="345.2857142857143" r="2" fill="#ff2bd6"/>
      <circle cx="695.4285714285714" cy="345.2857142857143" r="2" fill="#ff2bd6"/>
    </g>
    <g class="eye-glow-pulse" opacity=".54">
      <circle cx="744.2857142857142" cy="346.2857142857143" r="6" fill="#23f7dd" fill-opacity=".20" stroke="#ffe95e" stroke-width="2"/>
      <circle cx="741.2857142857142" cy="345.2857142857143" r="2" fill="#ff2bd6"/>
      <circle cx="747.2857142857142" cy="345.2857142857143" r="2" fill="#ff2bd6"/>
    </g>
    <g class="eye-glow-pulse" opacity=".54">
      <circle cx="797.1428571428571" cy="346.2857142857143" r="7" fill="#23f7dd" fill-opacity=".20" stroke="#ffe95e" stroke-width="2"/>
      <circle cx="793.6428571428571" cy="345.2857142857143" r="2" fill="#ff2bd6"/>
      <circle cx="800.6428571428571" cy="345.2857142857143" r="2" fill="#ff2bd6"/>
    </g>
    <g class="eye-glow-pulse" opacity=".54">
      <circle cx="850" cy="346.2857142857143" r="8" fill="#23f7dd" fill-opacity=".20" stroke="#ffe95e" stroke-width="2"/>
      <circle cx="846" cy="345.2857142857143" r="2" fill="#ff2bd6"/>
      <circle cx="854" cy="345.2857142857143" r="2" fill="#ff2bd6"/>
    </g>
    <g class="eye-glow-pulse" opacity=".54">
      <circle cx="110" cy="399.1428571428571" r="6" fill="#23f7dd" fill-opacity=".20" stroke="#ffe95e" stroke-width="2"/>
      <circle cx="107" cy="398.1428571428571" r="2" fill="#ff2bd6"/>
      <circle cx="113" cy="398.1428571428571" r="2" fill="#ff2bd6"/>
    </g>
    <g class="eye-glow-pulse" opacity=".54">
      <circle cx="162.85714285714286" cy="399.1428571428571" r="7" fill="#23f7dd" fill-opacity=".20" stroke="#ffe95e" stroke-width="2"/>
      <circle cx="159.35714285714286" cy="398.1428571428571" r="2" fill="#ff2bd6"/>
      <circle cx="166.35714285714286" cy="398.1428571428571" r="2" fill="#ff2bd6"/>
    </g>
    <g class="eye-glow-pulse" opacity=".54">
      <circle cx="215.71428571428572" cy="399.1428571428571" r="8" fill="#23f7dd" fill-opacity=".20" stroke="#ffe95e" stroke-width="2"/>
      <circle cx="211.71428571428572" cy="398.1428571428571" r="2" fill="#ff2bd6"/>
      <circle cx="219.71428571428572" cy="398.1428571428571" r="2" fill="#ff2bd6"/>
    </g>
    <g class="eye-glow-pulse" opacity=".54">
      <circle cx="268.57142857142856" cy="399.1428571428571" r="6" fill="#23f7dd" fill-opacity=".20" stroke="#ffe95e" stroke-width="2"/>
      <circle cx="265.57142857142856" cy="398.1428571428571" r="2" fill="#ff2bd6"/>
      <circle cx="271.57142857142856" cy="398.1428571428571" r="2" fill="#ff2bd6"/>
    </g>
    <g class="eye-glow-pulse" opacity=".54">
      <circle cx="321.42857142857144" cy="399.1428571428571" r="7" fill="#23f7dd" fill-opacity=".20" stroke="#ffe95e" stroke-width="2"/>
      <circle cx="317.92857142857144" cy="398.1428571428571" r="2" fill="#ff2bd6"/>
      <circle cx="324.92857142857144" cy="398.1428571428571" r="2" fill="#ff2bd6"/>
    </g>
    <g class="eye-glow-pulse" opacity=".54">
      <circle cx="374.2857142857143" cy="399.1428571428571" r="8" fill="#23f7dd" fill-opacity=".20" stroke="#ffe95e" stroke-width="2"/>
      <circle cx="370.2857142857143" cy="398.1428571428571" r="2" fill="#ff2bd6"/>
      <circle cx="378.2857142857143" cy="398.1428571428571" r="2" fill="#ff2bd6"/>
    </g>
    <g class="eye-glow-pulse" opacity=".54">
      <circle cx="427.1428571428571" cy="399.1428571428571" r="6" fill="#23f7dd" fill-opacity=".20" stroke="#ffe95e" stroke-width="2"/>
      <circle cx="424.1428571428571" cy="398.1428571428571" r="2" fill="#ff2bd6"/>
      <circle cx="430.1428571428571" cy="398.1428571428571" r="2" fill="#ff2bd6"/>
    </g>
    <g class="eye-glow-pulse" opacity=".54">
      <circle cx="480" cy="399.1428571428571" r="7" fill="#23f7dd" fill-opacity=".20" stroke="#ffe95e" stroke-width="2"/>
      <circle cx="476.5" cy="398.1428571428571" r="2" fill="#ff2bd6"/>
      <circle cx="483.5" cy="398.1428571428571" r="2" fill="#ff2bd6"/>
    </g>
    <g class="eye-glow-pulse" opacity=".54">
      <circle cx="532.8571428571429" cy="399.1428571428571" r="8" fill="#23f7dd" fill-opacity=".20" stroke="#ffe95e" stroke-width="2"/>
      <circle cx="528.8571428571429" cy="398.1428571428571" r="2" fill="#ff2bd6"/>
      <circle cx="536.8571428571429" cy="398.1428571428571" r="2" fill="#ff2bd6"/>
    </g>
    <g class="eye-glow-pulse" opacity=".54">
      <circle cx="585.7142857142857" cy="399.1428571428571" r="6" fill="#23f7dd" fill-opacity=".20" stroke="#ffe95e" stroke-width="2"/>
      <circle cx="582.7142857142857" cy="398.1428571428571" r="2" fill="#ff2bd6"/>
      <circle cx="588.7142857142857" cy="398.1428571428571" r="2" fill="#ff2bd6"/>
    </g>
    <g class="eye-glow-pulse" opacity=".54">
      <circle cx="638.5714285714286" cy="399.1428571428571" r="7" fill="#23f7dd" fill-opacity=".20" stroke="#ffe95e" stroke-width="2"/>
      <circle cx="635.0714285714286" cy="398.1428571428571" r="2" fill="#ff2bd6"/>
      <circle cx="642.0714285714286" cy="398.1428571428571" r="2" fill="#ff2bd6"/>
    </g>
    <g class="eye-glow-pulse" opacity=".54">
      <circle cx="691.4285714285714" cy="399.1428571428571" r="8" fill="#23f7dd" fill-opacity=".20" stroke="#ffe95e" stroke-width="2"/>
      <circle cx="687.4285714285714" cy="398.1428571428571" r="2" fill="#ff2bd6"/>
      <circle cx="695.4285714285714" cy="398.1428571428571" r="2" fill="#ff2bd6"/>
    </g>
    <g class="eye-glow-pulse" opacity=".54">
      <circle cx="744.2857142857142" cy="399.1428571428571" r="6" fill="#23f7dd" fill-opacity=".20" stroke="#ffe95e" stroke-width="2"/>
      <circle cx="741.2857142857142" cy="398.1428571428571" r="2" fill="#ff2bd6"/>
      <circle cx="747.2857142857142" cy="398.1428571428571" r="2" fill="#ff2bd6"/>
    </g>
    <g class="eye-glow-pulse" opacity=".54">
      <circle cx="797.1428571428571" cy="399.1428571428571" r="7" fill="#23f7dd" fill-opacity=".20" stroke="#ffe95e" stroke-width="2"/>
      <circle cx="793.6428571428571" cy="398.1428571428571" r="2" fill="#ff2bd6"/>
      <circle cx="800.6428571428571" cy="398.1428571428571" r="2" fill="#ff2bd6"/>
    </g>
    <g class="eye-glow-pulse" opacity=".54">
      <circle cx="850" cy="399.1428571428571" r="8" fill="#23f7dd" fill-opacity=".20" stroke="#ffe95e" stroke-width="2"/>
      <circle cx="846" cy="398.1428571428571" r="2" fill="#ff2bd6"/>
      <circle cx="854" cy="398.1428571428571" r="2" fill="#ff2bd6"/>
    </g>
    <g class="eye-glow-pulse" opacity=".54">
      <circle cx="110" cy="452" r="6" fill="#23f7dd" fill-opacity=".20" stroke="#ffe95e" stroke-width="2"/>
      <circle cx="107" cy="451" r="2" fill="#ff2bd6"/>
      <circle cx="113" cy="451" r="2" fill="#ff2bd6"/>
    </g>
    <g class="eye-glow-pulse" opacity=".54">
      <circle cx="162.85714285714286" cy="452" r="7" fill="#23f7dd" fill-opacity=".20" stroke="#ffe95e" stroke-width="2"/>
      <circle cx="159.35714285714286" cy="451" r="2" fill="#ff2bd6"/>
      <circle cx="166.35714285714286" cy="451" r="2" fill="#ff2bd6"/>
    </g>
    <g class="eye-glow-pulse" opacity=".54">
      <circle cx="215.71428571428572" cy="452" r="8" fill="#23f7dd" fill-opacity=".20" stroke="#ffe95e" stroke-width="2"/>
      <circle cx="211.71428571428572" cy="451" r="2" fill="#ff2bd6"/>
      <circle cx="219.71428571428572" cy="451" r="2" fill="#ff2bd6"/>
    </g>
    <g class="eye-glow-pulse" opacity=".54">
      <circle cx="268.57142857142856" cy="452" r="6" fill="#23f7dd" fill-opacity=".20" stroke="#ffe95e" stroke-width="2"/>
      <circle cx="265.57142857142856" cy="451" r="2" fill="#ff2bd6"/>
      <circle cx="271.57142857142856" cy="451" r="2" fill="#ff2bd6"/>
    </g>
    <g class="eye-glow-pulse" opacity=".54">
      <circle cx="321.42857142857144" cy="452" r="7" fill="#23f7dd" fill-opacity=".20" stroke="#ffe95e" stroke-width="2"/>
      <circle cx="317.92857142857144" cy="451" r="2" fill="#ff2bd6"/>
      <circle cx="324.92857142857144" cy="451" r="2" fill="#ff2bd6"/>
    </g>
    <path class="spin" d="M150 282C278 34 684 28 818 282C680 530 278 530 150 282Z" stroke="#ff2bd6" stroke-width="8" stroke-opacity=".48" stroke-dasharray="24 18" fill="none"/>
    <path class="energy-movement" d="M-40 80C160 10 330 164 520 80C710 -4 850 148 1000 52" stroke="#23f7dd" stroke-opacity=".54" stroke-width="3" stroke-linecap="round" stroke-dasharray="30 24" fill="none"/>
    <path class="energy-movement" d="M-40 134.28571428571428C160 64.28571428571428 330 218.28571428571428 520 134.28571428571428C710 50.28571428571428 850 202.28571428571428 1000 106.28571428571428" stroke="#23f7dd" stroke-opacity=".54" stroke-width="4" stroke-linecap="round" stroke-dasharray="30 24" fill="none"/>
    <path class="energy-movement" d="M-40 188.57142857142856C160 118.57142857142856 330 272.57142857142856 520 188.57142857142856C710 104.57142857142856 850 256.57142857142856 1000 160.57142857142856" stroke="#23f7dd" stroke-opacity=".54" stroke-width="5" stroke-linecap="round" stroke-dasharray="30 24" fill="none"/>
    <path class="energy-movement" d="M-40 242.85714285714286C160 172.85714285714286 330 326.8571428571429 520 242.85714285714286C710 158.85714285714286 850 310.8571428571429 1000 214.85714285714286" stroke="#23f7dd" stroke-opacity=".54" stroke-width="6" stroke-linecap="round" stroke-dasharray="30 24" fill="none"/>
    <path class="energy-movement" d="M-40 297.1428571428571C160 227.1428571428571 330 381.1428571428571 520 297.1428571428571C710 213.1428571428571 850 365.1428571428571 1000 269.1428571428571" stroke="#23f7dd" stroke-opacity=".54" stroke-width="3" stroke-linecap="round" stroke-dasharray="30 24" fill="none"/>
    <path class="energy-movement" d="M-40 351.42857142857144C160 281.42857142857144 330 435.42857142857144 520 351.42857142857144C710 267.42857142857144 850 419.42857142857144 1000 323.42857142857144" stroke="#23f7dd" stroke-opacity=".54" stroke-width="4" stroke-linecap="round" stroke-dasharray="30 24" fill="none"/>
    <path class="energy-movement" d="M-40 405.7142857142857C160 335.7142857142857 330 489.7142857142857 520 405.7142857142857C710 321.7142857142857 850 473.7142857142857 1000 377.7142857142857" stroke="#23f7dd" stroke-opacity=".54" stroke-width="5" stroke-linecap="round" stroke-dasharray="30 24" fill="none"/>
    <path class="energy-movement" d="M-40 460C160 390 330 544 520 460C710 376 850 528 1000 432" stroke="#23f7dd" stroke-opacity=".54" stroke-width="6" stroke-linecap="round" stroke-dasharray="30 24" fill="none"/>
  </g>
  <g filter="url(#glow)">
    <text x="58" y="66" fill="#ffe95e" font-family="ui-monospace, SFMono-Regular, Menlo, Monaco, Consolas, monospace" font-size="20" font-weight="900">PHASE 4</text>
    <text x="58" y="92" fill="#f7fbff" font-family="ui-monospace, SFMono-Regular, Menlo, Monaco, Consolas, monospace" font-size="16" font-weight="900">100+ Faces</text>
    <circle class="threat-indicator-pulse" cx="902" cy="58" r="28" fill="#23f7dd" filter="url(#glow)"/>
  </g>
</svg>
