<svg width="960" height="540" viewBox="0 0 960 540" fill="none" xmlns="http://www.w3.org/2000/svg" role="img" aria-labelledby="title desc">
  <title id="title">The Overfitted Beast Corrupted Form</title>
  <desc id="desc">Corrupted form: memorized examples burst through its skin as jagged shards.</desc>
  <defs>
    <linearGradient id="bg" x1="0" y1="0" x2="960" y2="540" gradientUnits="userSpaceOnUse">
      <stop offset="0" stop-color="#050b14"/>
      <stop offset=".48" stop-color="#12051c"/>
      <stop offset="1" stop-color="#061b22"/>
    </linearGradient>
    <radialGradient id="core" cx="50%" cy="46%" r="50%">
      <stop offset="0" stop-color="#ff3b6b" stop-opacity=".32"/>
      <stop offset=".45" stop-color="#ffe95e" stop-opacity=".16"/>
      <stop offset="1" stop-color="#020713" stop-opacity="0"/>
    </radialGradient>
    <pattern id="scan" width="9" height="9" patternUnits="userSpaceOnUse">
      <path d="M0 0H9" stroke="#ff3b6b" stroke-opacity=".08"/>
    </pattern>
    <filter id="glow" x="-30%" y="-30%" width="160%" height="160%">
      <feGaussianBlur stdDeviation="8" result="blur"/>
      <feMerge><feMergeNode in="blur"/><feMergeNode in="SourceGraphic"/></feMerge>
    </filter>
    <filter id="heavyGlow" x="-50%" y="-50%" width="200%" height="200%">
      <feGaussianBlur stdDeviation="16" result="blur"/>
      <feMerge><feMergeNode in="blur"/><feMergeNode in="SourceGraphic"/></feMerge>
    </filter>
    <style>
      @keyframes pulse { 0%,100% { opacity: .55; } 50% { opacity: 1; } }
      @keyframes spin { to { transform: rotate(360deg); } }
      @keyframes shake { 0%,100% { transform: translate(0,0); } 20% { transform: translate(3px,-2px); } 40% { transform: translate(-3px,2px); } 60% { transform: translate(2px,3px); } 80% { transform: translate(-2px,-3px); } }
      @keyframes drift { 0%,100% { transform: translateX(0); } 50% { transform: translateX(16px); } }
      @keyframes sweep { 0% { transform: translateX(-960px); } 100% { transform: translateX(960px); } }
      @keyframes flow { to { stroke-dashoffset: -220; } }
      .pulse { animation: pulse 1.65s ease-in-out infinite; }
      .spin { transform-origin: 480px 270px; animation: spin 8s linear infinite; }
      .shake { animation: shake 1.36s steps(2,end) infinite; }
      .drift { animation: drift 4.050000000000001s ease-in-out infinite; }
      .sweep { animation: sweep 4.8s linear infinite; }
      .flow { animation: flow 3.7s linear infinite; }
    </style>
  </defs>
  <rect width="960" height="540" fill="url(#bg)"/>
  <rect width="960" height="540" fill="url(#core)"/>
  <rect width="960" height="540" fill="url(#scan)"/>
  <rect class="sweep" x="0" y="0" width="228" height="540" fill="#ff3b6b" fill-opacity=".045"/>
  <path d="M0 108H960M0 432H960M110 0V540M850 0V540" stroke="#ff3b6b" stroke-opacity=".08"/>
  <path d="M22 24H202M758 24H938M22 516H202M758 516H938" stroke="#ffe95e" stroke-opacity=".72" stroke-width="4"/>
  <path class="spin" d="M84 270C204 32 756 32 876 270C756 508 204 508 84 270Z" stroke="#ffe95e" stroke-opacity=".18" stroke-width="6" stroke-dasharray="26 18" fill="none"/>
  <g filter="url(#heavyGlow)">
    <g>
    <path d="M126 388C182 230 306 112 484 118C674 126 824 246 884 412C692 526 318 530 126 388Z" fill="#070812" stroke="#ffe95e" stroke-width="14"/>
    <path d="M318 186L244 42L438 128M642 190L720 42L522 128" fill="#070812" stroke="#ff3b6b" stroke-width="9"/>
    <path d="M236 328L70 214M730 330L914 210M304 426L218 496M676 426L778 496" stroke="#ff3b6b" stroke-width="30" stroke-linecap="round"/>
    <path d="M70 214L34 242M914 210L946 236M218 540L172 534M778 540L824 532" stroke="#ffe95e" stroke-width="10" stroke-linecap="round"/>
    <path class="pulse" d="M398 258L456 224L438 292ZM566 260L506 224L526 294Z" fill="#23f7dd"/>
    <path d="M386 356C448 424 552 422 628 354" stroke="#ffe95e" stroke-width="11" fill="none"/>
    <path class="shake" d="M172 132L236 110L258 174L190 196Z" fill="#0a1018" stroke="#ff3b6b" stroke-width="4"/>
    <path d="M186 152C206 138 230 140 244 160" stroke="#23f7dd" stroke-width="3" fill="none"/>
    <path class="shake" d="M258 152L322 130L344 194L276 216Z" fill="#0a1018" stroke="#ffe95e" stroke-width="4"/>
    <path d="M272 172C292 158 316 160 330 180" stroke="#23f7dd" stroke-width="3" fill="none"/>
    <path class="shake" d="M344 132L408 110L430 174L362 196Z" fill="#0a1018" stroke="#ff3b6b" stroke-width="4"/>
    <path d="M358 152C378 138 402 140 416 160" stroke="#23f7dd" stroke-width="3" fill="none"/>
    <path class="shake" d="M430 152L494 130L516 194L448 216Z" fill="#0a1018" stroke="#ffe95e" stroke-width="4"/>
    <path d="M444 172C464 158 488 160 502 180" stroke="#23f7dd" stroke-width="3" fill="none"/>
    <path class="shake" d="M516 132L580 110L602 174L534 196Z" fill="#0a1018" stroke="#ff3b6b" stroke-width="4"/>
    <path d="M530 152C550 138 574 140 588 160" stroke="#23f7dd" stroke-width="3" fill="none"/>
    <path class="shake" d="M602 152L666 130L688 194L620 216Z" fill="#0a1018" stroke="#ffe95e" stroke-width="4"/>
    <path d="M616 172C636 158 660 160 674 180" stroke="#23f7dd" stroke-width="3" fill="none"/>
    <path class="shake" d="M688 132L752 110L774 174L706 196Z" fill="#0a1018" stroke="#ff3b6b" stroke-width="4"/>
    <path d="M702 152C722 138 746 140 760 160" stroke="#23f7dd" stroke-width="3" fill="none"/>
    <path class="shake" d="M774 152L838 130L860 194L792 216Z" fill="#0a1018" stroke="#ffe95e" stroke-width="4"/>
    <path d="M788 172C808 158 832 160 846 180" stroke="#23f7dd" stroke-width="3" fill="none"/>
    <path class="shake" d="M172 222L236 200L258 264L190 286Z" fill="#0a1018" stroke="#ff3b6b" stroke-width="4"/>
    <path d="M186 242C206 228 230 230 244 250" stroke="#23f7dd" stroke-width="3" fill="none"/>
    <path class="shake" d="M258 242L322 220L344 284L276 306Z" fill="#0a1018" stroke="#ffe95e" stroke-width="4"/>
    <path d="M272 262C292 248 316 250 330 270" stroke="#23f7dd" stroke-width="3" fill="none"/>
    <path class="shake" d="M344 222L408 200L430 264L362 286Z" fill="#0a1018" stroke="#ff3b6b" stroke-width="4"/>
    <path d="M358 242C378 228 402 230 416 250" stroke="#23f7dd" stroke-width="3" fill="none"/>
    <path class="shake" d="M430 242L494 220L516 284L448 306Z" fill="#0a1018" stroke="#ffe95e" stroke-width="4"/>
    <path d="M444 262C464 248 488 250 502 270" stroke="#23f7dd" stroke-width="3" fill="none"/>
    <path class="shake" d="M516 222L580 200L602 264L534 286Z" fill="#0a1018" stroke="#ff3b6b" stroke-width="4"/>
    <path d="M530 242C550 228 574 230 588 250" stroke="#23f7dd" stroke-width="3" fill="none"/>
    <path class="shake" d="M602 242L666 220L688 284L620 306Z" fill="#0a1018" stroke="#ffe95e" stroke-width="4"/>
    <path d="M616 262C636 248 660 250 674 270" stroke="#23f7dd" stroke-width="3" fill="none"/>
    <path class="shake" d="M688 222L752 200L774 264L706 286Z" fill="#0a1018" stroke="#ff3b6b" stroke-width="4"/>
    <path d="M702 242C722 228 746 230 760 250" stroke="#23f7dd" stroke-width="3" fill="none"/>
    <path class="shake" d="M774 242L838 220L860 284L792 306Z" fill="#0a1018" stroke="#ffe95e" stroke-width="4"/>
    <path d="M788 262C808 248 832 250 846 270" stroke="#23f7dd" stroke-width="3" fill="none"/>
    <path class="shake" d="M172 312L236 290L258 354L190 376Z" fill="#0a1018" stroke="#ff3b6b" stroke-width="4"/>
    <path d="M186 332C206 318 230 320 244 340" stroke="#23f7dd" stroke-width="3" fill="none"/>
    <path class="shake" d="M258 332L322 310L344 374L276 396Z" fill="#0a1018" stroke="#ffe95e" stroke-width="4"/>
    <path d="M272 352C292 338 316 340 330 360" stroke="#23f7dd" stroke-width="3" fill="none"/>
    <path class="shake" d="M344 312L408 290L430 354L362 376Z" fill="#0a1018" stroke="#ff3b6b" stroke-width="4"/>
    <path d="M358 332C378 318 402 320 416 340" stroke="#23f7dd" stroke-width="3" fill="none"/>
    <path class="shake" d="M430 332L494 310L516 374L448 396Z" fill="#0a1018" stroke="#ffe95e" stroke-width="4"/>
    <path d="M444 352C464 338 488 340 502 360" stroke="#23f7dd" stroke-width="3" fill="none"/>
    
  </g>
  </g>
  <g filter="url(#glow)">
    <path d="M36 42H174L208 76H36Z" fill="#020713" fill-opacity=".82" stroke="#ff3b6b" stroke-width="2"/>
    <text x="58" y="67" fill="#23f7dd" font-family="ui-monospace, SFMono-Regular, Menlo, Monaco, Consolas, monospace" font-size="22" font-weight="900">PHASE 3</text>
  </g>
</svg>
