<svg width="960" height="540" viewBox="0 0 960 540" fill="none" xmlns="http://www.w3.org/2000/svg" role="img" aria-labelledby="title desc">
  <title id="title">The Overfitted Beast Mutated Form</title>
  <desc id="desc">Mutated form: sample cards fuse into armor and its claws become decision trees.</desc>
  <defs>
    <linearGradient id="bg" x1="0" y1="0" x2="960" y2="540" gradientUnits="userSpaceOnUse">
      <stop offset="0" stop-color="#050b14"/>
      <stop offset=".48" stop-color="#12051c"/>
      <stop offset="1" stop-color="#061b22"/>
    </linearGradient>
    <radialGradient id="core" cx="50%" cy="46%" r="50%">
      <stop offset="0" stop-color="#ff3b6b" stop-opacity=".32"/>
      <stop offset=".45" stop-color="#ffe95e" stop-opacity=".16"/>
      <stop offset="1" stop-color="#020713" stop-opacity="0"/>
    </radialGradient>
    <pattern id="scan" width="9" height="9" patternUnits="userSpaceOnUse">
      <path d="M0 0H9" stroke="#ff3b6b" stroke-opacity=".08"/>
    </pattern>
    <filter id="glow" x="-30%" y="-30%" width="160%" height="160%">
      <feGaussianBlur stdDeviation="8" result="blur"/>
      <feMerge><feMergeNode in="blur"/><feMergeNode in="SourceGraphic"/></feMerge>
    </filter>
    <style>
      @keyframes pulse { 0%,100% { opacity: .55; } 50% { opacity: 1; } }
      @keyframes dash { to { stroke-dashoffset: -160; } }
      @keyframes spin { to { transform: rotate(360deg); } }
      @keyframes jitter { 0%,100% { transform: translate(0,0); } 20% { transform: translate(2px,-1px); } 40% { transform: translate(-2px,2px); } 60% { transform: translate(1px,2px); } 80% { transform: translate(-1px,-2px); } }
      @keyframes sweep { 0% { transform: translateX(-960px); } 100% { transform: translateX(960px); } }
      .pulse { animation: pulse 1.9s ease-in-out infinite; }
      .dash { animation: dash 4s linear infinite; }
      .spin { transform-origin: 480px 270px; animation: spin 10s linear infinite; }
      .jitter { animation: jitter 1.9000000000000001s steps(2,end) infinite; }
      .sweep { animation: sweep 5.2s linear infinite; }
    </style>
  </defs>
  <rect width="960" height="540" rx="22" fill="url(#bg)"/>
  <rect width="960" height="540" fill="url(#core)"/>
  <rect width="960" height="540" fill="url(#scan)"/>
  <rect class="sweep" x="0" y="0" width="192" height="540" fill="#ff3b6b" fill-opacity=".045"/>
  <path d="M0 90H960M0 180H960M0 270H960M0 360H960M0 450H960M120 0V540M240 0V540M360 0V540M480 0V540M600 0V540M720 0V540M840 0V540" stroke="#ff3b6b" stroke-opacity=".09"/>
  <rect x="28" y="28" width="904" height="484" rx="16" stroke="#ff3b6b" stroke-opacity=".78" stroke-width="2"/>
  <rect x="44" y="44" width="872" height="452" rx="8" stroke="#ffe95e" stroke-opacity=".42"/>
  <text x="70" y="86" fill="#ff3b6b" font-family="ui-monospace, SFMono-Regular, Menlo, Monaco, Consolas, monospace" font-size="17" letter-spacing="3">RAID ENCOUNTER // PHASE 2</text>
  <text x="70" y="128" fill="#f7fbff" font-family="ui-monospace, SFMono-Regular, Menlo, Monaco, Consolas, monospace" font-size="36" font-weight="900">The Overfitted Beast</text>
  <text x="70" y="158" fill="#23f7dd" font-family="ui-monospace, SFMono-Regular, Menlo, Monaco, Consolas, monospace" font-size="18">Training-Data Abomination</text>
  <text x="70" y="498" fill="#23f7dd" font-family="ui-monospace, SFMono-Regular, Menlo, Monaco, Consolas, monospace" font-size="16">CORRUPTION 50% // Mutated Form</text>
  <g filter="url(#glow)">
    <g>
    <ellipse cx="480" cy="320" rx="206" ry="114" fill="#07101b" stroke="#ffe95e" stroke-width="6"/>
    <path d="M342 286L248 206M618 286L720 206" stroke="#ff3b6b" stroke-width="18" stroke-linecap="round"/>
    <path d="M374 212L330 122L438 182M586 212L636 122L522 182" fill="#07101b" stroke="#ff3b6b" stroke-width="5"/>
    <circle cx="430" cy="286" r="12" fill="#23f7dd"/><circle cx="530" cy="286" r="12" fill="#23f7dd"/>
    <rect class="jitter" x="278" y="158" width="58" height="38" fill="#0b1725" stroke="#ff3b6b"/>
    <path d="M286 172H326M286 184H316" stroke="#23f7dd" stroke-width="3"/>
    <rect class="jitter" x="362" y="158" width="58" height="38" fill="#0b1725" stroke="#ffe95e"/>
    <path d="M370 172H410M370 184H400" stroke="#23f7dd" stroke-width="3"/>
    <rect class="jitter" x="446" y="158" width="58" height="38" fill="#0b1725" stroke="#ff3b6b"/>
    <path d="M454 172H494M454 184H484" stroke="#23f7dd" stroke-width="3"/>
    <rect class="jitter" x="530" y="158" width="58" height="38" fill="#0b1725" stroke="#ffe95e"/>
    <path d="M538 172H578M538 184H568" stroke="#23f7dd" stroke-width="3"/>
    <rect class="jitter" x="614" y="158" width="58" height="38" fill="#0b1725" stroke="#ff3b6b"/>
    <path d="M622 172H662M622 184H652" stroke="#23f7dd" stroke-width="3"/>
    <rect class="jitter" x="278" y="230" width="58" height="38" fill="#0b1725" stroke="#ffe95e"/>
    <path d="M286 244H326M286 256H316" stroke="#23f7dd" stroke-width="3"/>
    <rect class="jitter" x="362" y="230" width="58" height="38" fill="#0b1725" stroke="#ff3b6b"/>
    <path d="M370 244H410M370 256H400" stroke="#23f7dd" stroke-width="3"/>
    <rect class="jitter" x="446" y="230" width="58" height="38" fill="#0b1725" stroke="#ffe95e"/>
    <path d="M454 244H494M454 256H484" stroke="#23f7dd" stroke-width="3"/>
    
  </g>
  </g>
  <path d="M70 460H890" stroke="#ffe95e" stroke-opacity=".75" stroke-width="4" stroke-dasharray="20 12"/>
  <text x="890" y="86" text-anchor="end" fill="#ffe95e" font-family="ui-monospace, SFMono-Regular, Menlo, Monaco, Consolas, monospace" font-size="18">THREAT ELEVATED</text>
</svg>
