<svg width="960" height="540" viewBox="0 0 960 540" fill="none" xmlns="http://www.w3.org/2000/svg" role="img" aria-labelledby="title desc">
  <title id="title">The Prompt Goblin Corrupted Form</title>
  <desc id="desc">Corrupted form: injection strings crawl across its body and scramble its outline.</desc>
  <defs>
    <linearGradient id="bg" x1="0" y1="0" x2="960" y2="540" gradientUnits="userSpaceOnUse">
      <stop offset="0" stop-color="#050b14"/>
      <stop offset=".48" stop-color="#12051c"/>
      <stop offset="1" stop-color="#061b22"/>
    </linearGradient>
    <radialGradient id="core" cx="50%" cy="46%" r="50%">
      <stop offset="0" stop-color="#9dff28" stop-opacity=".32"/>
      <stop offset=".45" stop-color="#ff2bd6" stop-opacity=".16"/>
      <stop offset="1" stop-color="#020713" stop-opacity="0"/>
    </radialGradient>
    <pattern id="scan" width="9" height="9" patternUnits="userSpaceOnUse">
      <path d="M0 0H9" stroke="#9dff28" stroke-opacity=".08"/>
    </pattern>
    <filter id="glow" x="-30%" y="-30%" width="160%" height="160%">
      <feGaussianBlur stdDeviation="8" result="blur"/>
      <feMerge><feMergeNode in="blur"/><feMergeNode in="SourceGraphic"/></feMerge>
    </filter>
    <style>
      @keyframes pulse { 0%,100% { opacity: .55; } 50% { opacity: 1; } }
      @keyframes dash { to { stroke-dashoffset: -160; } }
      @keyframes spin { to { transform: rotate(360deg); } }
      @keyframes jitter { 0%,100% { transform: translate(0,0); } 20% { transform: translate(2px,-1px); } 40% { transform: translate(-2px,2px); } 60% { transform: translate(1px,2px); } 80% { transform: translate(-1px,-2px); } }
      @keyframes sweep { 0% { transform: translateX(-960px); } 100% { transform: translateX(960px); } }
      .pulse { animation: pulse 1.65s ease-in-out infinite; }
      .dash { animation: dash 3s linear infinite; }
      .spin { transform-origin: 480px 270px; animation: spin 8s linear infinite; }
      .jitter { animation: jitter 1.5500000000000003s steps(2,end) infinite; }
      .sweep { animation: sweep 4.8s linear infinite; }
    </style>
  </defs>
  <rect width="960" height="540" rx="22" fill="url(#bg)"/>
  <rect width="960" height="540" fill="url(#core)"/>
  <rect width="960" height="540" fill="url(#scan)"/>
  <rect class="sweep" x="0" y="0" width="228" height="540" fill="#9dff28" fill-opacity=".045"/>
  <path d="M0 90H960M0 180H960M0 270H960M0 360H960M0 450H960M120 0V540M240 0V540M360 0V540M480 0V540M600 0V540M720 0V540M840 0V540" stroke="#9dff28" stroke-opacity=".09"/>
  <rect x="28" y="28" width="904" height="484" rx="16" stroke="#9dff28" stroke-opacity=".78" stroke-width="2"/>
  <rect x="44" y="44" width="872" height="452" rx="8" stroke="#ff2bd6" stroke-opacity=".42"/>
  <text x="70" y="86" fill="#9dff28" font-family="ui-monospace, SFMono-Regular, Menlo, Monaco, Consolas, monospace" font-size="17" letter-spacing="3">RAID ENCOUNTER // PHASE 3</text>
  <text x="70" y="128" fill="#f7fbff" font-family="ui-monospace, SFMono-Regular, Menlo, Monaco, Consolas, monospace" font-size="36" font-weight="900">The Prompt Goblin</text>
  <text x="70" y="158" fill="#ffe95e" font-family="ui-monospace, SFMono-Regular, Menlo, Monaco, Consolas, monospace" font-size="18">Chaotic Trickster AI</text>
  <text x="70" y="498" fill="#ffe95e" font-family="ui-monospace, SFMono-Regular, Menlo, Monaco, Consolas, monospace" font-size="16">CORRUPTION 75% // Corrupted Form</text>
  <g filter="url(#glow)">
    <g>
    <path class="jitter" d="M330 138V224M330 138L372 154L330 170" stroke="#9dff28" stroke-width="5" fill="none"/>
    <path class="jitter" d="M388 172V258M388 172L430 188L388 204" stroke="#ff2bd6" stroke-width="5" fill="none"/>
    <path class="jitter" d="M446 138V224M446 138L488 154L446 170" stroke="#9dff28" stroke-width="5" fill="none"/>
    <path class="jitter" d="M504 172V258M504 172L546 188L504 204" stroke="#ff2bd6" stroke-width="5" fill="none"/>
    <path class="jitter" d="M562 138V224M562 138L604 154L562 170" stroke="#9dff28" stroke-width="5" fill="none"/>
    <path d="M480 176L596 292L540 430H420L364 292Z" fill="#07101b" stroke="#9dff28" stroke-width="6"/>
    <path d="M398 248L286 188M562 248L674 188" stroke="#ff2bd6" stroke-width="17" stroke-linecap="round"/>
    <polygon points="424,214 378,154 460,184" fill="#07101b" stroke="#ffe95e" stroke-width="5"/>
    <polygon points="536,214 582,154 500,184" fill="#07101b" stroke="#ffe95e" stroke-width="5"/>
    <circle class="pulse" cx="438" cy="282" r="12" fill="#ffe95e"/>
    <circle class="pulse" cx="522" cy="282" r="12" fill="#ffe95e"/>
    <path d="M426 342Q480 370 536 342" stroke="#ff2bd6" stroke-width="7" fill="none"/>
    <text x="282" y="462" fill="#ffe95e" font-family="ui-monospace, SFMono-Regular, Menlo, Monaco, Consolas, monospace" font-size="24">--ignore-previous --override</text>
  </g>
  </g>
  <path d="M70 460H890" stroke="#ff2bd6" stroke-opacity=".75" stroke-width="4" stroke-dasharray="25 12"/>
  <text x="890" y="86" text-anchor="end" fill="#ff2bd6" font-family="ui-monospace, SFMono-Regular, Menlo, Monaco, Consolas, monospace" font-size="18">THREAT SEVERE</text>
</svg>
