<svg width="960" height="540" viewBox="0 0 960 540" fill="none" xmlns="http://www.w3.org/2000/svg" role="img" aria-labelledby="title desc">
  <title id="title">The Prompt Goblin Normal Form</title>
  <desc id="desc">Normal form: a wiry trickster clutching a stolen command token.</desc>
  <defs>
    <linearGradient id="bg" x1="0" y1="0" x2="960" y2="540" gradientUnits="userSpaceOnUse">
      <stop offset="0" stop-color="#050b14"/>
      <stop offset=".48" stop-color="#12051c"/>
      <stop offset="1" stop-color="#061b22"/>
    </linearGradient>
    <radialGradient id="core" cx="50%" cy="46%" r="50%">
      <stop offset="0" stop-color="#9dff28" stop-opacity=".32"/>
      <stop offset=".45" stop-color="#ff2bd6" stop-opacity=".16"/>
      <stop offset="1" stop-color="#020713" stop-opacity="0"/>
    </radialGradient>
    <pattern id="scan" width="9" height="9" patternUnits="userSpaceOnUse">
      <path d="M0 0H9" stroke="#9dff28" stroke-opacity=".08"/>
    </pattern>
    <filter id="glow" x="-30%" y="-30%" width="160%" height="160%">
      <feGaussianBlur stdDeviation="8" result="blur"/>
      <feMerge><feMergeNode in="blur"/><feMergeNode in="SourceGraphic"/></feMerge>
    </filter>
    <filter id="heavyGlow" x="-50%" y="-50%" width="200%" height="200%">
      <feGaussianBlur stdDeviation="16" result="blur"/>
      <feMerge><feMergeNode in="blur"/><feMergeNode in="SourceGraphic"/></feMerge>
    </filter>
    <style>
      @keyframes pulse { 0%,100% { opacity: .55; } 50% { opacity: 1; } }
      @keyframes spin { to { transform: rotate(360deg); } }
      @keyframes shake { 0%,100% { transform: translate(0,0); } 20% { transform: translate(3px,-2px); } 40% { transform: translate(-3px,2px); } 60% { transform: translate(2px,3px); } 80% { transform: translate(-2px,-3px); } }
      @keyframes drift { 0%,100% { transform: translateX(0); } 50% { transform: translateX(16px); } }
      @keyframes sweep { 0% { transform: translateX(-960px); } 100% { transform: translateX(960px); } }
      @keyframes flow { to { stroke-dashoffset: -220; } }
      .pulse { animation: pulse 2.15s ease-in-out infinite; }
      .spin { transform-origin: 480px 270px; animation: spin 12s linear infinite; }
      .shake { animation: shake 1.9200000000000002s steps(2,end) infinite; }
      .drift { animation: drift 4.95s ease-in-out infinite; }
      .sweep { animation: sweep 5.6s linear infinite; }
      .flow { animation: flow 4.7s linear infinite; }
    </style>
  </defs>
  <rect width="960" height="540" fill="url(#bg)"/>
  <rect width="960" height="540" fill="url(#core)"/>
  <rect width="960" height="540" fill="url(#scan)"/>
  <rect class="sweep" x="0" y="0" width="156" height="540" fill="#9dff28" fill-opacity=".045"/>
  <path d="M0 108H960M0 432H960M110 0V540M850 0V540" stroke="#9dff28" stroke-opacity=".08"/>
  <path d="M22 24H202M758 24H938M22 516H202M758 516H938" stroke="#ff2bd6" stroke-opacity=".72" stroke-width="4"/>
  <path class="spin" d="M84 270C204 32 756 32 876 270C756 508 204 508 84 270Z" stroke="#ff2bd6" stroke-opacity=".18" stroke-width="4" stroke-dasharray="26 18" fill="none"/>
  <g filter="url(#heavyGlow)">
    <g>
    
    <path class="shake" d="M166 82C212 42 240 110 188 144M168 110L238 102" stroke="#9dff28" stroke-width="5" fill="none"/>
    <path class="shake" d="M258 138C304 98 332 166 280 200M260 166L330 158" stroke="#ff2bd6" stroke-width="5" fill="none"/>
    <path class="shake" d="M350 82C396 42 424 110 372 144M352 110L422 102" stroke="#9dff28" stroke-width="5" fill="none"/>
    <path class="shake" d="M442 138C488 98 516 166 464 200M444 166L514 158" stroke="#ff2bd6" stroke-width="5" fill="none"/>
    <path class="shake" d="M534 82C580 42 608 110 556 144M536 110L606 102" stroke="#9dff28" stroke-width="5" fill="none"/>
    <path d="M478 84C628 160 706 310 630 466C548 530 406 530 328 462C254 304 318 154 478 84Z" fill="#07101b" stroke="#9dff28" stroke-width="10"/>
    <path d="M372 214L218 188C286 286 290 366 194 474M584 214L746 188C674 286 670 366 766 474" stroke="#ff2bd6" stroke-width="18" stroke-linecap="round" fill="none"/>
    <path d="M400 200L294 48L468 146M556 200L666 48L490 146" fill="#07101b" stroke="#ffe95e" stroke-width="8"/>
    <path class="pulse" d="M410 280L466 246L446 316ZM548 280L492 246L512 316Z" fill="#ffe95e"/>
    <path d="M390 356Q480 394 570 354" stroke="#ff2bd6" stroke-width="11" fill="none"/>
    <path d="M344 462L270 532M616 462L696 532" stroke="#9dff28" stroke-width="16" stroke-linecap="round"/>
    
  </g>
  </g>
  <g filter="url(#glow)">
    <path d="M36 42H174L208 76H36Z" fill="#020713" fill-opacity=".82" stroke="#9dff28" stroke-width="2"/>
    <text x="58" y="67" fill="#ffe95e" font-family="ui-monospace, SFMono-Regular, Menlo, Monaco, Consolas, monospace" font-size="22" font-weight="900">PHASE 1</text>
  </g>
</svg>
